<?xml version="1.0" encoding="UTF-8" standalone="no"?>
<!-- Created with Inkscape (http://www.inkscape.org/) -->

<svg
   width="210mm"
   height="297mm"
   viewBox="0 0 210 297"
   version="1.1"
   id="svg1"
   inkscape:version="1.3.2 (091e20e, 2023-11-25, custom)"
   sodipodi:docname="Logo.svg"
   inkscape:export-filename="Logo.png"
   inkscape:export-xdpi="96"
   inkscape:export-ydpi="96"
   xmlns:inkscape="http://www.inkscape.org/namespaces/inkscape"
   xmlns:sodipodi="http://sodipodi.sourceforge.net/DTD/sodipodi-0.dtd"
   xmlns="http://www.w3.org/2000/svg"
   xmlns:svg="http://www.w3.org/2000/svg">
  <sodipodi:namedview
     id="namedview1"
     pagecolor="#505050"
     bordercolor="#ffffff"
     borderopacity="1"
     inkscape:showpageshadow="0"
     inkscape:pageopacity="0"
     inkscape:pagecheckerboard="1"
     inkscape:deskcolor="#505050"
     inkscape:document-units="mm"
     inkscape:zoom="2.8284271"
     inkscape:cx="187.02974"
     inkscape:cy="325.09234"
     inkscape:window-width="3440"
     inkscape:window-height="1369"
     inkscape:window-x="1912"
     inkscape:window-y="-8"
     inkscape:window-maximized="1"
     inkscape:current-layer="layer1" />
  <defs
     id="defs1">
    <inkscape:path-effect
       effect="lattice2"
       gridpoint0="1.7143417,68.398923"
       gridpoint1="62.309355,68.398923"
       gridpoint2="1.7143417,85.728595"
       gridpoint3="62.309355,85.728595"
       gridpoint4="16.863095,68.398923"
       gridpoint5="47.160602,68.398923"
       gridpoint6="16.863095,85.728595"
       gridpoint7="47.160602,85.728595"
       gridpoint8x9="32.011848,68.398923"
       gridpoint10x11="32.011848,85.728595"
       gridpoint12="1.7143417,72.731341"
       gridpoint13="62.309355,72.731341"
       gridpoint14="1.7143417,81.396177"
       gridpoint15="62.309355,81.396177"
       gridpoint16="16.863095,72.731341"
       gridpoint17="47.160602,72.731341"
       gridpoint18="16.863095,81.396177"
       gridpoint19="47.160602,81.396177"
       gridpoint20x21="32.011848,72.731341"
       gridpoint22x23="32.011848,81.396177"
       gridpoint24x26="1.7143417,77.063759"
       gridpoint25x27="62.309355,77.063759"
       gridpoint28x30="16.863095,77.063759"
       gridpoint29x31="47.160602,77.063759"
       gridpoint32x33x34x35="32.011848,77.063759"
       id="path-effect23"
       is_visible="true"
       lpeversion="1"
       horizontal_mirror="false"
       vertical_mirror="false"
       perimetral="false"
       live_update="true" />
    <inkscape:path-effect
       effect="gears"
       id="path-effect22"
       is_visible="true"
       lpeversion="1"
       teeth="10"
       phi="5"
       min_radius="5" />
    <inkscape:path-effect
       effect="roughen"
       id="path-effect21"
       is_visible="true"
       lpeversion="1.2"
       global_randomize="1.4;1"
       displace_x="3;1"
       displace_y="10;1"
       method="size"
       max_segment_size="0.346593"
       segments="2"
       handles="along"
       shift_nodes="true"
       fixed_displacement="false"
       spray_tool_friendly="false" />
    <inkscape:path-effect
       effect="sketch"
       id="path-effect20"
       is_visible="true"
       lpeversion="1"
       nbiter_approxstrokes="1"
       parallel_offset="5;1"
       strokelength="5"
       strokelength_rdm="0.3;1"
       strokeoverlap="0.3"
       strokeoverlap_rdm="0.3;1"
       ends_tolerance="0.1;1"
       tremble_size="5;1"
       tremble_frequency="1"
       nbtangents="5"
       tgt_places_rdmness="1;1"
       tgtlength="100"
       tgtlength_rdm="0.3;1"
       tgtscale="10" />
    <inkscape:path-effect
       effect="bend_path"
       id="path-effect4"
       is_visible="true"
       lpeversion="1"
       bendpath="m 4.4127124,80.957209 c 16.3112526,-6.603131 33.4943156,-10.390163 55.0663626,0"
       prop_scale="1.1"
       scale_y_rel="false"
       vertical="false"
       hide_knot="false"
       bendpath-nodetypes="cc" />
  </defs>
  <g
     inkscape:label="Layer 1"
     inkscape:groupmode="layer"
     id="layer1">
    <path
       id="path20"
       style="display:none;stroke-width:0.616948;stroke-linecap:round;stroke-linejoin:round;stroke-miterlimit:0.1"
       d="m 51.670188,60.243581 c -18.456057,0 -33.398867,5.397426 -34.669721,11.802897 v 37.651952 l 34.669721,-2.52078 34.669719,2.52078 V 72.046478 C 85.069053,65.641007 70.126245,60.243581 51.670188,60.243581 Z" />
    <rect
       style="display:none;fill:#000000;fill-opacity:1;stroke:none;stroke-width:0.523368;stroke-linecap:round;stroke-linejoin:round;stroke-miterlimit:0.1;stroke-dasharray:none;stroke-dashoffset:0;stroke-opacity:1"
       id="rect20"
       width="94.503998"
       height="30.861895"
       x="5.6409779"
       y="82.101158" />
    <g
       id="path3"
       transform="translate(18.047629,-2.010955)"
       inkscape:path-effect="#path-effect23"
       inkscape:export-filename="Logo.png"
       inkscape:export-xdpi="96"
       inkscape:export-ydpi="96">
      <path
         id="path18"
         style="color:#000000;-inkscape-font-specification:Sans;fill:#ffffff;fill-opacity:1;stroke:none;stroke-width:0.2;stroke-linecap:round;stroke-linejoin:round;stroke-miterlimit:0.1;stroke-dasharray:none;stroke-opacity:1"
         d="m 33.394359,68.404542 c -1.243214,-0.01681 -2.490665,0.004 -3.739823,0.06408 -0.0014,-6e-6 -0.0027,-6e-6 -0.0041,0 -0.310528,0.01801 -0.620265,0.0381 -0.929659,0.06046 -0.265205,0.0187 -0.465319,0.248397 -0.447517,0.513664 0.02619,0.382999 0.07855,1.148768 0.07855,1.148768 0.01896,0.265646 0.24955,0.465706 0.515214,0.447002 0.297768,-0.02126 0.595826,-0.0393 0.894519,-0.05633 0.03776,-0.0018 0.07593,-0.0023 0.113688,-0.0041 0.111299,2.669796 0.33383,8.007781 0.33383,8.007781 -0.0091,5.12e-4 -0.01827,0.0015 -0.02739,0.0021 -0.257683,0.01215 -0.515975,0.02654 -0.773596,0.04289 -0.26665,0.0168 -0.468892,0.247075 -0.451135,0.513663 0.02602,0.382998 0.07803,1.148765 0.07803,1.148765 0.0179,0.265179 0.246868,0.465956 0.512114,0.449067 0.247912,-0.01543 0.49642,-0.02953 0.74414,-0.04082 0.0019,1.1e-5 0.0038,1.1e-5 0.0057,0 0.982337,-0.05683 1.968375,-0.08013 2.955375,-0.0708 0.265594,0.0021 0.482931,-0.210876 0.486275,-0.476457 0.0045,-0.383515 0.01344,-1.150315 0.01344,-1.150315 0.0032,-0.267195 -0.211317,-0.486132 -0.478524,-0.488341 -0.267041,-0.0027 -0.533534,0.0022 -0.800468,0.0041 -0.03844,-2.667906 -0.115292,-8.002127 -0.115292,-8.002127 0.336983,-0.0014 0.673198,-0.0044 1.009757,0 0.266196,0.0029 0.484481,-0.210265 0.487826,-0.476457 0.0047,-0.382827 0.01395,-1.148252 0.01395,-1.148252 0.0032,-0.2658 -0.209119,-0.484152 -0.474906,-0.488342 0,0 2e-6,0 2e-6,0 z m 2.665987,0.09353 c -0.265781,-0.01535 -0.493783,0.187445 -0.50953,0.453203 -0.210365,3.747466 -0.630969,11.240141 -0.630969,11.240141 -0.01533,0.266542 0.188689,0.494877 0.45527,0.509528 0.416223,0.02315 0.831627,0.05213 1.247985,0.0863 0.266685,0.02236 0.500632,-0.176571 0.521416,-0.443383 0.108026,-1.323179 0.324011,-3.968746 0.324011,-3.968746 0.397168,0.03609 0.795137,0.07249 1.191658,0.117305 0.918399,1.53775 1.760522,3.095869 2.509925,4.673612 0.06661,0.140224 0.196609,0.239841 0.349332,0.267683 0.538515,0.0978 1.076373,0.203783 1.613339,0.318326 0.177993,0.03817 0.36232,-0.02707 0.476664,-0.168718 0.114344,-0.141647 0.139243,-0.335587 0.06439,-0.501525 -0.78307,-1.731734 -1.68561,-3.440905 -2.66392,-5.13043 0.528008,-0.211471 1.062216,-0.41722 1.458825,-0.812871 7.02e-4,-6.97e-4 0.0014,-0.0014 0.0021,-0.0021 0.548848,-0.552302 0.909031,-1.288635 1.066601,-2.165761 0.116777,-0.650043 0.09697,-1.248171 -0.105937,-1.775603 -0.186314,-0.503541 -0.50199,-0.9497 -0.929659,-1.316199 -6.98e-4,-7.02e-4 -0.0014,-0.0014 -0.0021,-0.0021 -0.380216,-0.323504 -0.828412,-0.570396 -1.3317,-0.73632 -0.496219,-0.168785 -1.103511,-0.292056 -1.828313,-0.371037 -1.088629,-0.118628 -2.182412,-0.209201 -3.279386,-0.271301 0,-2e-6 0,-3e-6 0,-4e-6 z m -9.984403,0.275436 c -0.514964,0.0577 -1.0273,0.120224 -1.538925,0.189135 -0.263458,0.03554 -0.448546,0.277472 -0.413928,0.541053 0.175219,1.306298 0.52555,3.918111 0.52555,3.918111 -1.47225,0.208989 -2.934762,0.467313 -4.386813,0.771528 -0.27997,-1.288724 -0.839742,-3.8654 -0.839742,-3.8654 -0.05666,-0.259697 -0.31267,-0.42467 -0.572575,-0.36897 -0.498652,0.107038 -0.996816,0.217677 -1.491898,0.333829 -0.259819,0.06173 -0.420091,0.322755 -0.357601,0.582394 0.867304,3.657531 2.601391,10.970387 2.601391,10.970387 0.06173,0.259819 0.322756,0.420091 0.582394,0.357601 0.419816,-0.100863 0.839746,-0.196696 1.259354,-0.288871 0.260056,-0.05735 0.424492,-0.314525 0.36742,-0.574641 -0.354916,-1.633644 -1.064535,-4.899955 -1.064535,-4.899955 1.39565,-0.292852 2.798107,-0.542288 4.206979,-0.742589 0.222081,1.654666 0.666109,4.963001 0.666109,4.963001 0.03451,0.264293 0.276764,0.450552 0.541052,0.415994 0.418385,-0.05581 0.835727,-0.107329 1.25367,-0.152446 0.266523,-0.02757 0.459551,-0.266995 0.429948,-0.533299 -0.411599,-3.73109 -1.23455,-11.191049 -1.23455,-11.191049 -0.02968,-0.264855 -0.268446,-0.455501 -0.5333,-0.425813 z m 21.055045,1.326016 c -0.259594,-0.06106 -0.519502,0.100018 -0.580326,0.359669 -0.858172,3.662182 -2.574003,10.98434 -2.574003,10.98434 -0.06077,0.259259 0.09996,0.518741 0.359151,0.579809 1.96285,0.464593 3.911163,1.036573 5.834269,1.706869 0.251732,0.08804 0.527149,-0.04481 0.61495,-0.296622 0.145929,-0.420729 0.437699,-1.261937 0.437699,-1.261937 0.08664,-0.251261 -0.04621,-0.525275 -0.297139,-0.612878 -1.423982,-0.496046 -2.865839,-0.923032 -4.316016,-1.312579 0.791842,-3.064505 2.375049,-9.191687 2.375049,-9.191687 0.06636,-0.258309 -0.08941,-0.521466 -0.347783,-0.587561 -0.500271,-0.128362 -1.00232,-0.250328 -1.505851,-0.367419 z M 15.17945,70.835917 c -0.479839,0.12619 -0.957203,0.256776 -1.433504,0.390674 -0.213007,0.06005 -0.357858,0.257307 -0.3514,0.478524 0.08266,2.611038 0.257466,5.210076 0.443384,7.806758 -1.319766,-2.244446 -2.652836,-4.482735 -4.0565999,-6.689514 -0.1187674,-0.187542 -0.3501598,-0.269862 -0.5606893,-0.199472 -0.4814373,0.161457 -0.9617426,0.326681 -1.4391887,0.494544 -0.2095445,0.0736 -0.3417936,0.280718 -0.3203939,0.501778 0.2488806,2.56851 0.5684913,5.120602 0.894519,7.669814 C 6.9217766,79.15318 5.4787883,77.022778 3.9863349,74.924038 3.8577565,74.742109 3.621347,74.671848 3.4142768,74.754022 2.9448349,74.940624 2.476952,75.131237 2.0117784,75.322463 1.7223577,75.442686 1.6225379,75.802596 1.80869,76.054718 c 2.3099969,3.11106 4.5634029,6.265783 6.7401571,9.462984 0.1257468,0.18461 0.3617568,0.25879 0.5705079,0.179317 0.4617783,-0.174924 0.922337,-0.346303 1.384412,-0.515214 0.21288,-0.07776 0.342956,-0.293195 0.312642,-0.517797 -0.330071,-2.457931 -0.594809,-4.931352 -0.8536946,-7.406261 1.3327576,2.105347 2.6626256,4.212264 3.9160396,6.351547 0.113898,0.196065 0.34894,0.286383 0.564824,0.21704 0.473151,-0.152125 0.946368,-0.299857 1.419551,-0.443383 0.214341,-0.0657 0.355206,-0.270358 0.340031,-0.494027 -0.258645,-3.848173 -0.403909,-7.712483 -0.418062,-11.587918 -9.78e-4,-0.315902 -0.300197,-0.545678 -0.605648,-0.465089 z m 22.738664,0.05839 c 0.427769,0.03835 0.854537,0.07621 1.281059,0.123507 0.378961,0.04202 0.695699,0.109404 0.943611,0.19327 0.0026,7.21e-4 0.0052,0.0014 0.0078,0.0021 0.236575,0.07579 0.416033,0.180113 0.554488,0.304374 0.0019,0.0014 0.0038,0.0027 0.0057,0.0041 0.176768,0.154152 0.2675,0.302768 0.312643,0.470773 0.0013,0.0038 0.0027,0.0076 0.0041,0.01137 0.05389,0.182748 0.06583,0.397369 0.02532,0.660426 -0.05817,0.377749 -0.152875,0.661675 -0.259932,0.849561 -7.05e-4,0.0012 -0.0014,0.0024 -0.0021,0.0036 -0.10729,0.192454 -0.250522,0.354407 -0.443384,0.496095 -0.198315,0.142749 -0.414771,0.226378 -0.683163,0.259932 -0.293619,0.03183 -0.648616,0.02708 -1.064534,-0.01757 -0.31624,-0.03395 -0.632528,-0.06128 -0.949296,-0.08992 0.02319,-0.283429 0.244498,-2.988189 0.267688,-3.271618 z m 15.128792,0.861444 c -0.360263,-0.118353 -0.709991,0.205977 -0.619084,0.574125 0.600375,2.429538 1.068287,4.857908 1.423686,7.275524 -0.567176,1.444988 -1.701188,4.334098 -1.701188,4.334098 -0.09684,0.248009 0.02549,0.527588 0.273368,0.624767 0.399638,0.156544 0.796842,0.318046 1.193726,0.482658 0.245874,0.102109 0.52799,-0.01421 0.630452,-0.259933 0.616796,-1.48203 1.850017,-4.445203 1.850017,-4.445203 1.911409,-1.442918 3.907121,-2.816918 5.984131,-4.107242 0.149179,-0.09296 0.236009,-0.259688 0.226658,-0.435212 -0.0094,-0.175524 -0.113406,-0.33208 -0.271618,-0.408664 -0.490457,-0.237016 -0.984214,-0.469037 -1.48053,-0.695565 -0.151198,-0.06954 -0.327558,-0.05626 -0.466638,0.03514 -1.447491,0.956644 -2.836557,1.968965 -4.201294,3.000335 -0.256753,-1.686992 -0.543655,-3.377981 -0.915706,-5.072559 -0.03646,-0.16216 -0.153797,-0.294146 -0.310576,-0.349333 -0.536275,-0.19028 -1.074126,-0.375363 -1.615405,-0.552936 0,0 10e-7,0 10e-7,0 z"
         inkscape:original-d="m 33.394359,68.404535 c -1.243214,-0.01681 -2.490665,0.004 -3.739823,0.06408 a 0.48254824,0.48254824 0 0 0 -0.0041,0 c -0.310528,0.01801 -0.620265,0.0381 -0.929659,0.06046 a 0.48254824,0.48254824 0 0 0 -0.447517,0.513664 l 0.07855,1.148767 a 0.48254824,0.48254824 0 0 0 0.515214,0.447001 c 0.297768,-0.02126 0.595826,-0.0393 0.894519,-0.05633 0.03775,-0.0018 0.07595,-0.0023 0.113688,-0.0041 l 0.33383,8.00778 c -0.0091,5.12e-4 -0.01827,0.0015 -0.02739,0.0021 -0.257683,0.01215 -0.515975,0.02654 -0.773596,0.04289 a 0.48254824,0.48254824 0 0 0 -0.451135,0.513664 l 0.07803,1.148767 a 0.48254824,0.48254824 0 0 0 0.512114,0.449068 c 0.247912,-0.01543 0.49642,-0.02953 0.74414,-0.04082 a 0.48254824,0.48254824 0 0 0 0.0057,0 c 0.982337,-0.05683 1.968375,-0.08013 2.955375,-0.0708 a 0.48254824,0.48254824 0 0 0 0.486275,-0.476457 l 0.01344,-1.150317 A 0.48254824,0.48254824 0 0 0 33.27349,78.51561 c -0.267041,-0.0027 -0.533534,0.0022 -0.800468,0.0041 L 32.35773,70.517584 c 0.336983,-0.0014 0.673198,-0.0044 1.009757,0 a 0.48254824,0.48254824 0 0 0 0.487826,-0.476456 l 0.01395,-1.148251 a 0.48254824,0.48254824 0 0 0 -0.474906,-0.488342 z m 2.665987,0.09353 a 0.48254824,0.48254824 0 0 0 -0.50953,0.453203 l -0.630969,11.24014 a 0.48254824,0.48254824 0 0 0 0.45527,0.50953 c 0.416223,0.02315 0.831627,0.05213 1.247985,0.0863 a 0.48254824,0.48254824 0 0 0 0.521416,-0.443384 l 0.324011,-3.96875 c 0.397168,0.03609 0.795137,0.07249 1.191658,0.117305 0.918399,1.537751 1.760522,3.095871 2.509925,4.673617 a 0.48254824,0.48254824 0 0 0 0.349332,0.267684 c 0.538515,0.0978 1.076373,0.203783 1.613339,0.318327 a 0.48254824,0.48254824 0 0 0 0.541052,-0.670244 c -0.78307,-1.731738 -1.68561,-3.44091 -2.66392,-5.130436 0.528008,-0.211471 1.062216,-0.41722 1.458825,-0.81287 a 0.48254824,0.48254824 0 0 0 0.0021,-0.0021 c 0.548848,-0.552302 0.909031,-1.288635 1.066601,-2.16576 0.116777,-0.650043 0.09697,-1.24817 -0.105937,-1.775602 -0.186314,-0.503541 -0.50199,-0.949699 -0.929659,-1.316198 a 0.48254824,0.48254824 0 0 0 -0.0021,-0.0021 c -0.380216,-0.323504 -0.828412,-0.570396 -1.3317,-0.73632 -0.496219,-0.168784 -1.103511,-0.292055 -1.828313,-0.371036 -1.088629,-0.118628 -2.182412,-0.209202 -3.279386,-0.271302 z m -9.984403,0.275436 c -0.514964,0.0577 -1.0273,0.120224 -1.538925,0.189135 a 0.48254824,0.48254824 0 0 0 -0.413928,0.541053 l 0.52555,3.918107 c -1.47225,0.20899 -2.934762,0.467314 -4.386813,0.771529 l -0.839742,-3.865397 a 0.48254824,0.48254824 0 0 0 -0.572575,-0.36897 c -0.498652,0.107038 -0.996816,0.217678 -1.491898,0.33383 a 0.48254824,0.48254824 0 0 0 -0.357601,0.582393 l 2.601391,10.97039 a 0.48254824,0.48254824 0 0 0 0.582394,0.357601 c 0.419816,-0.100863 0.839746,-0.196696 1.259354,-0.288871 a 0.48254824,0.48254824 0 0 0 0.36742,-0.574642 l -1.064535,-4.89996 c 1.39565,-0.292853 2.798107,-0.542289 4.206979,-0.74259 l 0.666109,4.963005 a 0.48254824,0.48254824 0 0 0 0.541052,0.415995 c 0.418385,-0.05581 0.835727,-0.107329 1.25367,-0.152446 a 0.48254824,0.48254824 0 0 0 0.429948,-0.5333 l -1.23455,-11.191049 a 0.48254824,0.48254824 0 0 0 -0.5333,-0.425813 z m 21.055045,1.326017 a 0.48254824,0.48254824 0 0 0 -0.580326,0.359668 l -2.574003,10.984342 a 0.48254824,0.48254824 0 0 0 0.359151,0.57981 c 1.96285,0.464594 3.911163,1.036575 5.834269,1.706872 a 0.48254824,0.48254824 0 0 0 0.61495,-0.296622 l 0.437699,-1.261939 A 0.48254824,0.48254824 0 0 0 50.925589,81.558771 C 49.501607,81.062724 48.05975,80.635737 46.609573,80.246189 l 2.375049,-9.191687 a 0.48254824,0.48254824 0 0 0 -0.347783,-0.587561 c -0.500271,-0.128362 -1.00232,-0.250328 -1.505851,-0.367419 z M 15.17945,70.835911 c -0.479839,0.12619 -0.957203,0.256776 -1.433504,0.390674 a 0.48254824,0.48254824 0 0 0 -0.3514,0.478524 c 0.08266,2.611036 0.257466,5.210074 0.443384,7.806758 -1.319768,-2.24445 -2.652835,-4.482733 -4.0566,-6.689514 A 0.48254824,0.48254824 0 0 0 9.2206407,72.622882 c -0.4814373,0.161457 -0.9617425,0.326681 -1.4391886,0.494544 a 0.48254824,0.48254824 0 0 0 -0.3203939,0.501778 c 0.2488805,2.568508 0.5684914,5.120603 0.894519,7.669816 C 6.9217748,79.153173 5.4787901,77.022776 3.9863349,74.924034 A 0.48254824,0.48254824 0 0 0 3.4142768,74.754018 C 2.9448349,74.94062 2.476952,75.131233 2.0117784,75.322459 A 0.48254824,0.48254824 0 0 0 1.80869,76.054714 c 2.3100051,3.111071 4.5633946,6.265774 6.7401571,9.462988 a 0.48254824,0.48254824 0 0 0 0.5705078,0.179317 c 0.4617783,-0.174924 0.9223371,-0.346303 1.3844121,-0.515214 a 0.48254824,0.48254824 0 0 0 0.312642,-0.517797 C 10.486338,82.206076 10.2216,79.73265 9.9627143,77.257741 c 1.3327597,2.10535 2.6626237,4.212263 3.9160397,6.351551 a 0.48254824,0.48254824 0 0 0 0.564824,0.217041 c 0.473151,-0.152125 0.946368,-0.299857 1.419551,-0.443384 A 0.48254824,0.48254824 0 0 0 16.20316,82.888922 C 15.944515,79.040744 15.799251,75.176432 15.785098,71.300999 A 0.48254824,0.48254824 0 0 0 15.17945,70.835911 Z m 22.738664,0.05839 c 0.427769,0.03835 0.854537,0.07621 1.281059,0.123507 0.378961,0.04202 0.695699,0.109404 0.943611,0.19327 a 0.48254824,0.48254824 0 0 0 0.0078,0.0021 c 0.236575,0.07579 0.416033,0.180113 0.554488,0.304374 a 0.48254824,0.48254824 0 0 0 0.0057,0.0041 c 0.176768,0.154152 0.2675,0.302768 0.312643,0.470773 a 0.48254824,0.48254824 0 0 0 0.0041,0.01137 c 0.05389,0.182748 0.06583,0.397369 0.02532,0.660425 -0.05817,0.377749 -0.152875,0.661675 -0.259932,0.849561 a 0.48254824,0.48254824 0 0 0 -0.0021,0.0036 c -0.10729,0.192454 -0.250522,0.354406 -0.443384,0.496094 -0.198315,0.142749 -0.414771,0.226378 -0.683163,0.259932 -0.293619,0.03183 -0.648616,0.02708 -1.064534,-0.01757 -0.31624,-0.03395 -0.632528,-0.06128 -0.949296,-0.08992 z m 15.128792,0.861447 a 0.48254824,0.48254824 0 0 0 -0.619084,0.574125 c 0.600375,2.429537 1.068287,4.857907 1.423686,7.275525 L 52.15032,83.9395 a 0.48254824,0.48254824 0 0 0 0.273368,0.624768 c 0.399638,0.156544 0.796842,0.318046 1.193726,0.482658 a 0.48254824,0.48254824 0 0 0 0.630452,-0.259933 l 1.850017,-4.445206 c 1.911409,-1.442919 3.90712,-2.816919 5.984131,-4.107243 a 0.48254824,0.48254824 0 0 0 -0.04496,-0.843876 c -0.490457,-0.237016 -0.984214,-0.469037 -1.48053,-0.695565 a 0.48254824,0.48254824 0 0 0 -0.466638,0.03514 c -1.447491,0.956643 -2.836557,1.968964 -4.201294,3.000334 -0.256753,-1.686993 -0.543655,-3.377982 -0.915706,-5.072559 A 0.48254824,0.48254824 0 0 0 54.66231,72.308685 c -0.536275,-0.19028 -1.074126,-0.375364 -1.615405,-0.552937 z" />
    </g>
    <g
       id="g17"
       transform="matrix(1.5586719,0,0,1.5586719,7.6383476,-49.271411)"
       style="fill:#f50000;fill-opacity:1;stroke:none;stroke-width:0.467735;stroke-dasharray:none;stroke-opacity:1">
      <path
         style="font-size:14.1111px;line-height:2;font-family:Sans;-inkscape-font-specification:Sans;text-align:center;text-anchor:middle;fill:#f50000;fill-opacity:1;stroke:none;stroke-width:0.467735;stroke-dasharray:none;stroke-opacity:1"
         d="m 56.502511,96.39707 -2.821613,1.76111 -9.898747,2.89887 1.680896,-1.718318 7.737703,-2.636113 -0.452444,-1.853196 -7.285259,-2.149927 -0.877186,-2.020325 1.458898,-2.332906 8.504087,-2.985272 -1.80054,1.775656 -6.260335,3.397672 0.44321,1.113077 7.862613,2.881854 z"
         id="path17" />
      <path
         style="font-size:14.1111px;line-height:2;font-family:Sans;-inkscape-font-specification:Sans;text-align:center;text-anchor:middle;fill:#f50000;fill-opacity:1;stroke:none;stroke-width:0.467735;stroke-dasharray:none;stroke-opacity:1"
         d="m 42.657563,100.01846 -8.588315,-0.405609 1.323581,-11.91108 8.43577,2.46864 -1.171036,0.801235 -6.4021,-0.99216 -0.380454,2.39776 4.354072,1.246706 -1.129884,0.834124 -3.224188,-0.90942 -0.201417,4.403284 5.148839,0.722936 z"
         id="path16" />
      <path
         style="font-size:14.1111px;line-height:2;font-family:Sans;-inkscape-font-specification:Sans;text-align:center;text-anchor:middle;fill:#f50000;fill-opacity:1;stroke:none;stroke-width:0.467735;stroke-dasharray:none;stroke-opacity:1"
         d="m 33.38232,93.366454 -0.613227,2.53559 -4.988614,3.14884 -3.446467,-11.683723 z m -1.522553,0.340364 -5.669146,-3.702774 2.59604,6.980294 2.866516,-1.765952 z"
         id="path15"
         sodipodi:nodetypes="cccccccccc" />
      <path
         style="font-size:14.1111px;line-height:2;font-family:Sans;-inkscape-font-specification:Sans;text-align:center;text-anchor:middle;fill:#f50000;fill-opacity:1;stroke:none;stroke-width:0.467735;stroke-dasharray:none;stroke-opacity:1"
         d="m 27.216151,99.894154 h -1.722384 l -1.207385,-3.797368 -3.810649,-2.79742 -1.878774,4.32018 -1.049233,-0.64771 4.137315,-10.447945 1.237138,1.470035 z m -3.573867,-5.485438 -1.552162,-5.453692 -1.335256,3.352222 z"
         id="path14" />
      <path
         style="font-size:14.1111px;line-height:2;font-family:Sans;-inkscape-font-specification:Sans;text-align:center;text-anchor:middle;fill:#f50000;fill-opacity:1;stroke:none;stroke-width:0.467735;stroke-dasharray:none;stroke-opacity:1"
         d="m 20.550081,100.30831 -5.319519,-1.21267 -2.589648,-11.572949 2.054928,-0.110774 1.898977,10.471053 4.366707,0.628475 z"
         id="path13" />
      <path
         style="font-size:14.1111px;line-height:2;font-family:Sans;-inkscape-font-specification:Sans;text-align:center;text-anchor:middle;fill:#f50000;fill-opacity:1;stroke:none;stroke-width:0.467735;stroke-dasharray:none;stroke-opacity:1"
         d="m 0.34847358,101.2913 2.08192062,-2.453032 0.8674012,-9.454805 -1.917131,-2.859572 2.0081488,0.759191 5.1646393,1.879891 4.0456005,1.44691 -0.593617,2.10155 -0.992187,0.87503 v 0 l 2.343814,4.181011 z m 8.15674762,-10.963847 -3.5059751,-1.08178 0.2685559,3.70696 3.3752229,0.3376 2.1537451,-0.3376 0.640722,-1.64684 z m 2.9322708,6.045682 -0.640722,-1.422432 c 0,0 -2.765657,-0.638828 -2.8825215,-0.64765 L 5.267802,94.103283 4.1488191,99.106565 8.5052212,97.767474 Z"
         id="path4" />
    </g>
    <path
       id="path25"
       style="fill:#ff0000;fill-opacity:1;stroke:none;stroke-width:0.615;stroke-linecap:round;stroke-linejoin:round;stroke-miterlimit:0.1;stroke-dasharray:none;stroke-dashoffset:0;stroke-opacity:1"
       d="M 2.9911532,108.92146 C 6.2462826,106.67491 4.6626322,98.734854 -0.54610378,91.186689 -5.7548308,83.638533 -12.616283,79.340482 -15.87167,81.586648 c -0.534561,0.374595 -0.948855,0.917569 -1.231399,1.613856 -3.473474,8.755251 -6.682218,17.618866 -10.114763,26.391436 9.419723,-0.0963 18.8451482,0.0489 28.2632032,-0.0919 0.751229,-0.0171 1.405882,-0.21175 1.945782,-0.57861 z" />
    <ellipse
       style="fill:#800000;fill-opacity:1;stroke:none;stroke-width:0.770393;stroke-linecap:round;stroke-linejoin:round;stroke-miterlimit:0.1;stroke-dasharray:none;stroke-dashoffset:0;stroke-opacity:1"
       id="path26"
       cx="59.333988"
       cy="-74.74147"
       rx="7.0939426"
       ry="16.605705"
       transform="rotate(145.39176)" />
    <path
       id="rect32"
       style="fill:#d3d3d3;fill-opacity:1;stroke:none;stroke-width:0.615;stroke-linecap:round;stroke-linejoin:round;stroke-miterlimit:0.1;stroke-dasharray:none;stroke-dashoffset:0;stroke-opacity:1"
       inkscape:transform-center-x="7.7122626"
       inkscape:transform-center-y="12.153975"
       d="m 11.915143,76.970717 -6.2563408,-4.907494 -14.860615,18.943566 4.652686,6.951507 z" />
    <rect
       style="fill:#452a00;fill-opacity:1;stroke:none;stroke-width:0.442331;stroke-linecap:round;stroke-linejoin:round;stroke-miterlimit:0.1;stroke-dasharray:none;stroke-dashoffset:0;stroke-opacity:1"
       id="rect32-4"
       width="19.176588"
       height="5.7727437"
       x="43.318317"
       y="50.319897"
       transform="rotate(38.112903)"
       inkscape:transform-center-x="-0.81784711"
       inkscape:transform-center-y="0.87933972" />
    <rect
       style="fill:#452a00;fill-opacity:1;stroke:none;stroke-width:0.384883;stroke-linecap:round;stroke-linejoin:round;stroke-miterlimit:0.1;stroke-dasharray:none;stroke-dashoffset:0;stroke-opacity:1"
       id="rect32-4-1"
       width="4.464016"
       height="18.775406"
       x="50.67461"
       y="33.360783"
       transform="rotate(38.112903)"
       inkscape:transform-center-x="-7.272533"
       inkscape:transform-center-y="-7.3487991" />
  </g>
</svg>
