<?xml version="1.0" encoding="UTF-8" standalone="no"?>
<!-- Created with Inkscape (http://www.inkscape.org/) -->

<svg
   width="56.873093mm"
   height="56.873093mm"
   viewBox="0 0 56.873093 56.873093"
   version="1.1"
   id="svg1"
   inkscape:version="1.3.2 (091e20e, 2023-11-25, custom)"
   sodipodi:docname="Player.svg"
   xmlns:inkscape="http://www.inkscape.org/namespaces/inkscape"
   xmlns:sodipodi="http://sodipodi.sourceforge.net/DTD/sodipodi-0.dtd"
   xmlns="http://www.w3.org/2000/svg"
   xmlns:svg="http://www.w3.org/2000/svg">
  <sodipodi:namedview
     id="namedview1"
     pagecolor="#505050"
     bordercolor="#ffffff"
     borderopacity="1"
     inkscape:showpageshadow="0"
     inkscape:pageopacity="0"
     inkscape:pagecheckerboard="1"
     inkscape:deskcolor="#505050"
     inkscape:document-units="mm"
     inkscape:zoom="2.8284271"
     inkscape:cx="185.61553"
     inkscape:cy="150.43697"
     inkscape:window-width="3440"
     inkscape:window-height="1369"
     inkscape:window-x="1912"
     inkscape:window-y="-8"
     inkscape:window-maximized="1"
     inkscape:current-layer="layer1" />
  <defs
     id="defs1">
    <inkscape:path-effect
       effect="copy_rotate"
       starting_point="107.52318,126.66643"
       origin="79.811158,126.66643"
       id="path-effect44"
       is_visible="true"
       lpeversion="1.2"
       lpesatellites=""
       method="normal"
       num_copies="8"
       starting_angle="0"
       rotation_angle="45"
       gap="-0.01"
       copies_to_360="true"
       mirror_copies="false"
       split_items="false"
       link_styles="false" />
    <inkscape:path-effect
       effect="clone_original"
       css_properties=""
       attributes="style,clip-path,mask"
       linkeditem=""
       is_visible="true"
       method="none"
       allow_transforms="true"
       id="path-effect43"
       lpeversion="1" />
    <inkscape:path-effect
       effect="clone_original"
       linkeditem=""
       id="path-effect8"
       is_visible="true"
       lpeversion="1"
       method="none"
       attributes=""
       css_properties=""
       allow_transforms="true" />
    <inkscape:path-effect
       origin="52.823658,122.56539"
       starting_point="152.82366,122.56539"
       effect="copy_rotate"
       id="path-effect6"
       is_visible="true"
       lpeversion="1.2"
       lpesatellites=""
       method="normal"
       num_copies="6"
       starting_angle="0"
       rotation_angle="60"
       gap="-0.01"
       copies_to_360="true"
       mirror_copies="false"
       split_items="false"
       link_styles="false" />
    <inkscape:path-effect
       effect="clone_original"
       css_properties=""
       attributes="style,clip-path,mask"
       linkeditem=""
       is_visible="true"
       method="d"
       allow_transforms="true"
       id="path-effect7"
       lpeversion="1" />
    <inkscape:path-effect
       effect="clone_original"
       css_properties=""
       attributes="style,clip-path,mask"
       linkeditem="#path1"
       is_visible="true"
       method="d"
       allow_transforms="true"
       id="path-effect5"
       lpeversion="1" />
    <inkscape:path-effect
       effect="copy_rotate"
       starting_point="82.62774,133.6225"
       origin="54.109531,133.6225"
       id="path-effect4"
       is_visible="true"
       lpeversion="1.2"
       lpesatellites=""
       method="normal"
       num_copies="7"
       starting_angle="0"
       rotation_angle="51.428571"
       gap="-0.01"
       copies_to_360="true"
       mirror_copies="false"
       split_items="false"
       link_styles="false" />
    <inkscape:path-effect
       effect="copy_rotate"
       starting_point="12.121105,7.5"
       origin="0,7.5"
       id="path-effect3"
       is_visible="true"
       lpeversion="1.2"
       lpesatellites=""
       method="normal"
       num_copies="47"
       starting_angle="0"
       rotation_angle="7.6595745"
       gap="0"
       copies_to_360="true"
       mirror_copies="false"
       split_items="false"
       link_styles="false" />
    <inkscape:path-effect
       effect="copy_rotate"
       starting_point="12.122653,0"
       origin="0,0"
       id="path-effect1"
       is_visible="true"
       lpeversion="1.2"
       lpesatellites=""
       method="normal"
       num_copies="6"
       starting_angle="0"
       rotation_angle="60"
       gap="0"
       copies_to_360="true"
       mirror_copies="false"
       split_items="false"
       link_styles="false" />
    <inkscape:path-effect
       effect="clone_original"
       linkeditem=""
       id="path-effect8-5"
       is_visible="true"
       lpeversion="1"
       method="d"
       attributes=""
       css_properties=""
       allow_transforms="true" />
    <inkscape:path-effect
       effect="copy_rotate"
       starting_point="179.81116,126.66643"
       origin="79.811158,126.66643"
       id="path-effect44-0"
       is_visible="true"
       lpeversion="1.2"
       lpesatellites=""
       method="normal"
       num_copies="8"
       starting_angle="0"
       rotation_angle="45"
       gap="-0.01"
       copies_to_360="true"
       mirror_copies="false"
       split_items="false"
       link_styles="false" />
    <inkscape:path-effect
       effect="copy_rotate"
       starting_point="179.81116,126.66643"
       origin="79.811158,126.66643"
       id="path-effect44-4"
       is_visible="true"
       lpeversion="1.2"
       lpesatellites=""
       method="normal"
       num_copies="8"
       starting_angle="0"
       rotation_angle="45"
       gap="-0.01"
       copies_to_360="true"
       mirror_copies="false"
       split_items="false"
       link_styles="false" />
    <inkscape:path-effect
       effect="copy_rotate"
       starting_point="179.81116,126.66643"
       origin="79.811158,126.66643"
       id="path-effect44-4-1"
       is_visible="true"
       lpeversion="1.2"
       lpesatellites=""
       method="normal"
       num_copies="8"
       starting_angle="0"
       rotation_angle="45"
       gap="-0.01"
       copies_to_360="true"
       mirror_copies="false"
       split_items="false"
       link_styles="false" />
  </defs>
  <g
     inkscape:label="Layer 1"
     inkscape:groupmode="layer"
     id="layer1"
     transform="translate(-63.942321,-64.363219)">
    <path
       id="path1-4"
       style="display:inline;fill:#e31111;fill-opacity:1;stroke-width:0.665001"
       inkscape:label="path1"
       inkscape:transform-center-x="-0.16802692"
       inkscape:transform-center-y="-0.13241986"
       d="m 71.93098,98.229886 c -6.22377,3.623504 -12.85004,9.670724 -13.364042,19.103224 -2.703055,-2.97231 -4.41756,-5.24009 -4.435388,-5.20226 -1.838656,6.96303 -2.248062,15.92455 4.05815,22.95777 -4.013147,-0.19039 -6.829228,-0.58144 -6.815088,-0.54209 3.623508,6.22378 9.670702,12.85058 19.103227,13.36456 -2.972279,2.70302 -5.240092,4.41704 -5.202267,4.43487 6.962961,1.83864 15.924583,2.24838 22.957772,-4.05763 -0.190397,4.01294 -0.581438,6.82871 -0.542086,6.81457 6.223779,-3.62351 12.850572,-9.6707 13.364562,-19.10323 2.70302,2.97228 4.41704,5.24009 4.43487,5.20227 1.83864,-6.96296 2.24838,-15.92458 -4.05763,-22.95777 4.01294,0.1904 6.82871,0.58144 6.81457,0.54208 -3.62351,-6.22377 -9.670728,-12.85004 -19.10323,-13.36404 2.972309,-2.70305 5.240091,-4.41756 5.202266,-4.43539 -6.963031,-1.838652 -15.924551,-2.248058 -22.957772,4.05815 0.19039,-4.01314 0.58144,-6.829224 0.542086,-6.815084 z"
       sodipodi:nodetypes="ccccccccccccccccc"
       transform="translate(12.567709,-33.866667)" />
    <path
       id="path1-4-8"
       style="display:inline;fill:#f79494;fill-opacity:1;stroke-width:0.665001"
       inkscape:label="path1"
       inkscape:transform-center-x="-0.10053728"
       inkscape:transform-center-y="-0.12477704"
       d="m 92.385952,100.52174 c -6.628307,-1.393073 -14.608481,-1.205494 -20.997562,4.52339 0.190387,-4.01323 0.582397,-6.829597 0.543043,-6.815457 -6.223815,3.623527 -12.850641,9.670977 -13.36456,19.103587 -2.703087,-2.97234 -4.417649,-5.24015 -4.435478,-5.20233 -1.83862,6.9629 -2.248297,15.92445 4.057534,22.95761 -4.012894,-0.1904 -6.828408,-0.58142 -6.814269,-0.54207 3.623528,6.22382 9.670975,12.85064 19.103592,13.36456 -2.972374,2.70313 -5.240676,4.41683 -5.20285,4.43466 6.963114,1.83867 15.925016,2.24906 22.958275,-4.05739 -0.19039,4.01315 -0.582242,6.82893 -0.542889,6.81479 6.223663,-3.62344 12.850872,-9.67054 13.365082,-19.10276 2.70272,2.972 4.41713,5.23932 4.43496,5.2015 1.83862,-6.9629 2.24829,-15.92444 -4.05754,-22.9576 4.01288,0.1904 6.82841,0.58141 6.81427,0.54206 -3.62344,-6.22366 -9.670695,-12.8502 -19.102918,-13.3644 2.97234,-2.70309 5.240002,-4.41698 5.202177,-4.43481 -0.637765,-0.16841 -1.292559,-0.32489 -1.960867,-0.46534 z"
       sodipodi:nodetypes="cccccccccccccccccc"
       transform="matrix(0.73011558,-0.16720676,0.16720676,0.73011558,12.902696,13.638004)" />
    <path
       id="path1-4-8-9"
       style="display:inline;fill:#ffffff;fill-opacity:1;stroke-width:0.665001"
       inkscape:label="path1"
       inkscape:transform-center-x="-0.10822234"
       inkscape:transform-center-y="-0.04184608"
       d="m 71.93115,98.230057 c -6.223577,3.623393 -12.850255,9.670743 -13.364609,19.102743 -2.702987,-2.97224 -4.416753,-5.23991 -4.434582,-5.20209 -1.838709,6.96323 -2.248962,15.92541 4.057838,22.95873 -4.013115,-0.19039 -6.82936,-0.58233 -6.81522,-0.54298 3.62339,6.22357 9.670742,12.85025 19.102747,13.36461 -2.972013,2.70274 -5.239916,4.41675 -5.202094,4.43458 6.962785,1.83859 15.924991,2.24889 22.958096,-4.05665 -0.190414,4.01245 -0.581696,6.82817 -0.542346,6.81403 6.223773,-3.6235 12.85034,-9.67113 13.36433,-19.10366 2.70344,2.97267 4.41794,5.24056 4.43577,5.20273 1.83873,-6.96331 2.24828,-15.92509 -4.05875,-22.95845 4.01344,0.19038 6.82936,0.58233 6.81522,0.54298 -3.62338,-6.22357 -9.670741,-12.85025 -19.102744,-13.36461 2.972245,-2.70299 5.239638,-4.41766 5.201813,-4.43549 -6.963312,-1.838733 -15.9251,-2.248281 -22.958446,4.05875 0.190379,-4.01348 0.582332,-6.829364 0.542977,-6.815223 z"
       sodipodi:nodetypes="ccccccccccccccccc"
       transform="matrix(0.51838355,0.15948448,-0.15948448,0.51838355,71.21751,14.432243)" />
    <path
       id="rect44"
       style="display:inline;fill:#480000;fill-opacity:1;stroke:none;stroke-width:0.665001"
       d="m 92.35355,85.670731 -0.826307,0.826306 -1.012341,-0.584461 -0.58446,1.012342 -1.128614,-0.302307 -0.302307,1.128613 H 87.3306 v 1.168921 l -1.12913,0.302307 0.302307,1.128613 -1.011824,0.584461 0.58446,1.012341 -0.826306,0.826306 0.826306,0.826306 -0.58446,1.012342 1.012341,0.58446 -0.302824,1.128613 1.12913,0.302307 v 1.168921 h 1.168921 l 0.302307,1.128614 1.128614,-0.302308 0.58446,1.012342 1.012341,-0.584461 0.826307,0.826306 0.826306,-0.826306 1.012341,0.584461 0.58446,-1.012342 1.128614,0.302308 0.302307,-1.128614 h 1.168921 v -1.168921 l 1.128613,-0.302307 -0.302307,-1.128613 1.012341,-0.58446 -0.58446,-1.012342 0.826306,-0.826306 -0.826306,-0.826306 0.58446,-1.012341 -1.012341,-0.584461 0.302307,-1.128613 -1.128613,-0.302307 v -1.168921 h -1.168921 l -0.302307,-1.128613 -1.128614,0.302307 -0.58446,-1.012342 -1.012341,0.584461 z" />
    <ellipse
       style="display:inline;fill:none;fill-opacity:1;stroke:#000000;stroke-width:0.677338;stroke-opacity:1"
       id="path44"
       cx="92.353546"
       cy="92.77417"
       rx="22.772076"
       ry="22.772074" />
  </g>
</svg>
