  0
SECTION
  2
HEADER
  9
$ACADVER
  1
AC1014
  9
$HANDSEED
  5
FFFF
  9
$INSUNITS
 70
     4
  9
$MEASUREMENT
 70
     1
  0
ENDSEC
  0
SECTION
  2
TABLES
  0
TABLE
  2
VPORT
  5
8
330
0
100
AcDbSymbolTable
 70
     4
  0
VPORT
  5
2E
330
8
100
AcDbSymbolTableRecord
100
AcDbViewportTableRecord
  2
*ACTIVE
 70
     0
 10
0.0
 20
0.0
 11
1.0
 21
1.0
 12
210.0
 22
148.5
 13
0.0
 23
0.0
 14
10.0
 24
10.0
 15
10.0
 25
10.0
 16
0.0
 26
0.0
 36
1.0
 17
0.0
 27
0.0
 37
0.0
 40
341.0
 41
1.24
 42
50.0
 43
0.0
 44
0.0
 50
0.0
 51
0.0
 71
     0
 72
   100
 73
     1
 74
     3
 75
     0
 76
     0
 77
     0
 78
     0
  0
ENDTAB
  0
TABLE
  2
LTYPE
  5
5
330
0
100
AcDbSymbolTable
 70
     1
  0
LTYPE
  5
14
330
5
100
AcDbSymbolTableRecord
100
AcDbLinetypeTableRecord
  2
BYBLOCK
 70
     0
  3

 72
    65
 73
     0
 40
0.0
  0
LTYPE
  5
15
330
5
100
AcDbSymbolTableRecord
100
AcDbLinetypeTableRecord
  2
BYLAYER
 70
     0
  3

 72
    65
 73
     0
 40
0.0
  0
LTYPE
  5
16
330
5
100
AcDbSymbolTableRecord
100
AcDbLinetypeTableRecord
  2
CONTINUOUS
 70
     0
  3
Solid line
 72
    65
 73
     0
 40
0.0
  0
ENDTAB
  0
TABLE
  2
LAYER
  5
2
100
AcDbSymbolTable
 70
2
  0
LAYER
  5
50
100
AcDbSymbolTableRecord
100
AcDbLayerTableRecord
  2
0
 70
0
  6
CONTINUOUS
  0
LAYER
  5
51
100
AcDbSymbolTableRecord
100
AcDbLayerTableRecord
  2
Layer_1
 70
0
  6
CONTINUOUS
  0
ENDTAB
  0
TABLE
  2
STYLE
  5
3
330
0
100
AcDbSymbolTable
 70
     1
  0
STYLE
  5
11
330
3
100
AcDbSymbolTableRecord
100
AcDbTextStyleTableRecord
  2
STANDARD
 70
     0
 40
0.0
 41
1.0
 50
0.0
 71
     0
 42
2.5
  3
txt
  4

  0
ENDTAB
  0
TABLE
  2
VIEW
  5
6
330
0
100
AcDbSymbolTable
 70
     0
  0
ENDTAB
  0
TABLE
  2
UCS
  5
7
330
0
100
AcDbSymbolTable
 70
     0
  0
ENDTAB
  0
TABLE
  2
APPID
  5
9
330
0
100
AcDbSymbolTable
 70
     2
  0
APPID
  5
12
330
9
100
AcDbSymbolTableRecord
100
AcDbRegAppTableRecord
  2
ACAD
 70
     0
  0
ENDTAB
  0
TABLE
  2
DIMSTYLE
  5
A
330
0
100
AcDbSymbolTable
 70
     1
  0
DIMSTYLE
105
27
330
A
100
AcDbSymbolTableRecord
100
AcDbDimStyleTableRecord
  2
ISO-25
 70
     0
  3

  4

  5

  6

  7

 40
1.0
 41
2.5
 42
0.625
 43
3.75
 44
1.25
 45
0.0
 46
0.0
 47
0.0
 48
0.0
140
2.5
141
2.5
142
0.0
143
0.03937007874016
144
1.0
145
0.0
146
1.0
147
0.625
 71
     0
 72
     0
 73
     0
 74
     0
 75
     0
 76
     0
 77
     1
 78
     8
170
     0
171
     3
172
     1
173
     0
174
     0
175
     0
176
     0
177
     0
178
     0
270
     2
271
     2
272
     2
273
     2
274
     3
340
11
275
     0
280
     0
281
     0
282
     0
283
     0
284
     8
285
     0
286
     0
287
     3
288
     0
  0
ENDTAB
  0
TABLE
  2
BLOCK_RECORD
  5
1
330
0
100
AcDbSymbolTable
 70
     1
  0
BLOCK_RECORD
  5
1F
330
1
100
AcDbSymbolTableRecord
100
AcDbBlockTableRecord
  2
*MODEL_SPACE
  0
BLOCK_RECORD
  5
1B
330
1
100
AcDbSymbolTableRecord
100
AcDbBlockTableRecord
  2
*PAPER_SPACE
  0
ENDTAB
  0
ENDSEC
  0
SECTION
  2
BLOCKS
  0
BLOCK
  5
20
330
1F
100
AcDbEntity
  8
0
100
AcDbBlockBegin
  2
*MODEL_SPACE
 70
     0
 10
0.0
 20
0.0
 30
0.0
  3
*MODEL_SPACE
  1

  0
ENDBLK
  5
21
330
1F
100
AcDbEntity
  8
0
100
AcDbBlockEnd
  0
BLOCK
  5
1C
330
1B
100
AcDbEntity
 67
     1
  8
0
100
AcDbBlockBegin
  2
*PAPER_SPACE
  1

  0
ENDBLK
  5
1D
330
1B
100
AcDbEntity
 67
     1
  8
0
100
AcDbBlockEnd
  0
ENDSEC
  0
SECTION
  2
ENTITIES
  0
SPLINE
  5
100
100
AcDbEntity
  8
Layer_1
 62
7
100
AcDbSpline
 70
8
 71
3
 72
8
 73
4
 74
0
 40
0
 40
0
 40
0
 40
0
 40
1
 40
1
 40
1
 40
1
 10
20.556389
 20
56.873074
 30
0.0
 10
14.332619
 20
53.249570
 30
0.0
 10
7.706349
 20
47.202350
 30
0.0
 10
7.192347
 20
37.769850
 30
0.0
  0
SPLINE
  5
101
100
AcDbEntity
  8
Layer_1
 62
7
100
AcDbSpline
 70
8
 71
3
 72
8
 73
4
 74
0
 40
0
 40
0
 40
0
 40
0
 40
1
 40
1
 40
1
 40
1
 10
7.192347
 20
37.769850
 30
0.0
 10
4.489292
 20
40.742160
 30
0.0
 10
2.774787
 20
43.009940
 30
0.0
 10
2.756959
 20
42.972110
 30
0.0
  0
SPLINE
  5
102
100
AcDbEntity
  8
Layer_1
 62
7
100
AcDbSpline
 70
8
 71
3
 72
8
 73
4
 74
0
 40
0
 40
0
 40
0
 40
0
 40
1
 40
1
 40
1
 40
1
 10
2.756959
 20
42.972110
 30
0.0
 10
0.918303
 20
36.009080
 30
0.0
 10
0.508897
 20
27.047560
 30
0.0
 10
6.815109
 20
20.014340
 30
0.0
  0
SPLINE
  5
103
100
AcDbEntity
  8
Layer_1
 62
7
100
AcDbSpline
 70
8
 71
3
 72
8
 73
4
 74
0
 40
0
 40
0
 40
0
 40
0
 40
1
 40
1
 40
1
 40
1
 10
6.815109
 20
20.014340
 30
0.0
 10
2.801962
 20
20.204730
 30
0.0
 10
-0.014119
 20
20.595780
 30
0.0
 10
0.000021
 20
20.556430
 30
0.0
  0
SPLINE
  5
104
100
AcDbEntity
  8
Layer_1
 62
7
100
AcDbSpline
 70
8
 71
3
 72
8
 73
4
 74
0
 40
0
 40
0
 40
0
 40
0
 40
1
 40
1
 40
1
 40
1
 10
0.000021
 20
20.556430
 30
0.0
 10
3.623529
 20
14.332650
 30
0.0
 10
9.670723
 20
7.705850
 30
0.0
 10
19.103248
 20
7.191870
 30
0.0
  0
SPLINE
  5
105
100
AcDbEntity
  8
Layer_1
 62
7
100
AcDbSpline
 70
8
 71
3
 72
8
 73
4
 74
0
 40
0
 40
0
 40
0
 40
0
 40
1
 40
1
 40
1
 40
1
 10
19.103248
 20
7.191870
 30
0.0
 10
16.130969
 20
4.488850
 30
0.0
 10
13.863156
 20
2.774830
 30
0.0
 10
13.900981
 20
2.757000
 30
0.0
  0
SPLINE
  5
106
100
AcDbEntity
  8
Layer_1
 62
7
100
AcDbSpline
 70
8
 71
3
 72
8
 73
4
 74
0
 40
0
 40
0
 40
0
 40
0
 40
1
 40
1
 40
1
 40
1
 10
13.900981
 20
2.757000
 30
0.0
 10
20.863942
 20
0.918360
 30
0.0
 10
29.825564
 20
0.508620
 30
0.0
 10
36.858753
 20
6.814630
 30
0.0
  0
SPLINE
  5
107
100
AcDbEntity
  8
Layer_1
 62
7
100
AcDbSpline
 70
8
 71
3
 72
8
 73
4
 74
0
 40
0
 40
0
 40
0
 40
0
 40
1
 40
1
 40
1
 40
1
 10
36.858753
 20
6.814630
 30
0.0
 10
36.668356
 20
2.801690
 30
0.0
 10
36.277315
 20
-0.014080
 30
0.0
 10
36.316667
 20
0.000060
 30
0.0
  0
SPLINE
  5
108
100
AcDbEntity
  8
Layer_1
 62
7
100
AcDbSpline
 70
8
 71
3
 72
8
 73
4
 74
0
 40
0
 40
0
 40
0
 40
0
 40
1
 40
1
 40
1
 40
1
 10
36.316667
 20
0.000060
 30
0.0
 10
42.540446
 20
3.623570
 30
0.0
 10
49.167239
 20
9.670760
 30
0.0
 10
49.681229
 20
19.103290
 30
0.0
  0
SPLINE
  5
109
100
AcDbEntity
  8
Layer_1
 62
7
100
AcDbSpline
 70
8
 71
3
 72
8
 73
4
 74
0
 40
0
 40
0
 40
0
 40
0
 40
1
 40
1
 40
1
 40
1
 10
49.681229
 20
19.103290
 30
0.0
 10
52.384249
 20
16.131010
 30
0.0
 10
54.098269
 20
13.863200
 30
0.0
 10
54.116099
 20
13.901020
 30
0.0
  0
SPLINE
  5
10a
100
AcDbEntity
  8
Layer_1
 62
7
100
AcDbSpline
 70
8
 71
3
 72
8
 73
4
 74
0
 40
0
 40
0
 40
0
 40
0
 40
1
 40
1
 40
1
 40
1
 10
54.116099
 20
13.901020
 30
0.0
 10
55.954739
 20
20.863980
 30
0.0
 10
56.364479
 20
29.825600
 30
0.0
 10
50.058469
 20
36.858790
 30
0.0
  0
SPLINE
  5
10b
100
AcDbEntity
  8
Layer_1
 62
7
100
AcDbSpline
 70
8
 71
3
 72
8
 73
4
 74
0
 40
0
 40
0
 40
0
 40
0
 40
1
 40
1
 40
1
 40
1
 10
50.058469
 20
36.858790
 30
0.0
 10
54.071409
 20
36.668390
 30
0.0
 10
56.887179
 20
36.277350
 30
0.0
 10
56.873039
 20
36.316710
 30
0.0
  0
SPLINE
  5
10c
100
AcDbEntity
  8
Layer_1
 62
7
100
AcDbSpline
 70
8
 71
3
 72
8
 73
4
 74
0
 40
0
 40
0
 40
0
 40
0
 40
1
 40
1
 40
1
 40
1
 10
56.873039
 20
36.316710
 30
0.0
 10
53.249529
 20
42.540480
 30
0.0
 10
47.202311
 20
49.166750
 30
0.0
 10
37.769809
 20
49.680750
 30
0.0
  0
SPLINE
  5
10d
100
AcDbEntity
  8
Layer_1
 62
7
100
AcDbSpline
 70
8
 71
3
 72
8
 73
4
 74
0
 40
0
 40
0
 40
0
 40
0
 40
1
 40
1
 40
1
 40
1
 10
37.769809
 20
49.680750
 30
0.0
 10
40.742118
 20
52.383800
 30
0.0
 10
43.009900
 20
54.098310
 30
0.0
 10
42.972075
 20
54.116140
 30
0.0
  0
SPLINE
  5
10e
100
AcDbEntity
  8
Layer_1
 62
7
100
AcDbSpline
 70
8
 71
3
 72
8
 73
4
 74
0
 40
0
 40
0
 40
0
 40
0
 40
1
 40
1
 40
1
 40
1
 10
42.972075
 20
54.116140
 30
0.0
 10
36.009044
 20
55.954792
 30
0.0
 10
27.047524
 20
56.364198
 30
0.0
 10
20.014303
 20
50.057990
 30
0.0
  0
SPLINE
  5
10f
100
AcDbEntity
  8
Layer_1
 62
7
100
AcDbSpline
 70
8
 71
3
 72
8
 73
4
 74
0
 40
0
 40
0
 40
0
 40
0
 40
1
 40
1
 40
1
 40
1
 10
20.014303
 20
50.057990
 30
0.0
 10
20.204693
 20
54.071130
 30
0.0
 10
20.595743
 20
56.887214
 30
0.0
 10
20.556389
 20
56.873074
 30
0.0
  0
SPLINE
  5
110
100
AcDbEntity
  8
Layer_1
 62
7
100
AcDbSpline
 70
8
 71
3
 72
8
 73
4
 74
0
 40
0
 40
0
 40
0
 40
0
 40
1
 40
1
 40
1
 40
1
 10
33.220733
 20
49.653356
 30
0.0
 10
28.148372
 20
49.562163
 30
0.0
 10
22.353287
 20
48.090869
 30
0.0
 10
18.646428
 20
42.839824
 30
0.0
  0
SPLINE
  5
111
100
AcDbEntity
  8
Layer_1
 62
7
100
AcDbSpline
 70
8
 71
3
 72
8
 73
4
 74
0
 40
0
 40
0
 40
0
 40
0
 40
1
 40
1
 40
1
 40
1
 10
18.646428
 20
42.839824
 30
0.0
 10
18.114393
 20
45.801780
 30
0.0
 10
17.929690
 20
47.923600
 30
0.0
 10
17.903321
 20
47.906696
 30
0.0
  0
SPLINE
  5
112
100
AcDbEntity
  8
Layer_1
 62
7
100
AcDbSpline
 70
8
 71
3
 72
8
 73
4
 74
0
 40
0
 40
0
 40
0
 40
0
 40
1
 40
1
 40
1
 40
1
 10
17.903321
 20
47.906696
 30
0.0
 10
13.965095
 20
44.220439
 30
0.0
 10
10.137921
 20
38.697051
 30
0.0
 10
11.339897
 20
31.724225
 30
0.0
  0
SPLINE
  5
113
100
AcDbEntity
  8
Layer_1
 62
7
100
AcDbSpline
 70
8
 71
3
 72
8
 73
4
 74
0
 40
0
 40
0
 40
0
 40
0
 40
1
 40
1
 40
1
 40
1
 10
11.339897
 20
31.724225
 30
0.0
 10
8.869335
 20
33.442402
 30
0.0
 10
7.238314
 20
34.811479
 30
0.0
 10
7.231620
 20
34.780885
 30
0.0
  0
SPLINE
  5
114
100
AcDbEntity
  8
Layer_1
 62
7
100
AcDbSpline
 70
8
 71
3
 72
8
 73
4
 74
0
 40
0
 40
0
 40
0
 40
0
 40
1
 40
1
 40
1
 40
1
 10
7.231620
 20
34.780885
 30
0.0
 10
7.053459
 20
29.389734
 30
0.0
 10
8.252779
 20
22.778266
 30
0.0
 10
14.032757
 20
18.697624
 30
0.0
  0
SPLINE
  5
115
100
AcDbEntity
  8
Layer_1
 62
7
100
AcDbSpline
 70
8
 71
3
 72
8
 73
4
 74
0
 40
0
 40
0
 40
0
 40
0
 40
1
 40
1
 40
1
 40
1
 10
14.032757
 20
18.697624
 30
0.0
 10
11.071044
 20
18.165655
 30
0.0
 10
8.950012
 20
17.980371
 30
0.0
 10
8.966915
 20
17.954005
 30
0.0
  0
SPLINE
  5
116
100
AcDbEntity
  8
Layer_1
 62
7
100
AcDbSpline
 70
8
 71
3
 72
8
 73
4
 74
0
 40
0
 40
0
 40
0
 40
0
 40
1
 40
1
 40
1
 40
1
 10
8.966915
 20
17.954005
 30
0.0
 10
12.653174
 20
14.015776
 30
0.0
 10
18.176558
 20
10.188605
 30
0.0
 10
25.149390
 20
11.390582
 30
0.0
  0
SPLINE
  5
117
100
AcDbEntity
  8
Layer_1
 62
7
100
AcDbSpline
 70
8
 71
3
 72
8
 73
4
 74
0
 40
0
 40
0
 40
0
 40
0
 40
1
 40
1
 40
1
 40
1
 10
25.149390
 20
11.390582
 30
0.0
 10
23.431195
 20
8.919983
 30
0.0
 10
22.061615
 20
7.289509
 30
0.0
 10
22.092213
 20
7.282816
 30
0.0
  0
SPLINE
  5
118
100
AcDbEntity
  8
Layer_1
 62
7
100
AcDbSpline
 70
8
 71
3
 72
8
 73
4
 74
0
 40
0
 40
0
 40
0
 40
0
 40
1
 40
1
 40
1
 40
1
 10
22.092213
 20
7.282816
 30
0.0
 10
27.483529
 20
7.104654
 30
0.0
 10
34.095374
 20
8.303512
 30
0.0
 10
38.175984
 20
14.083958
 30
0.0
  0
SPLINE
  5
119
100
AcDbEntity
  8
Layer_1
 62
7
100
AcDbSpline
 70
8
 71
3
 72
8
 73
4
 74
0
 40
0
 40
0
 40
0
 40
0
 40
1
 40
1
 40
1
 40
1
 10
38.175984
 20
14.083958
 30
0.0
 10
38.708004
 20
11.122060
 30
0.0
 10
38.892724
 20
9.000695
 30
0.0
 10
38.919092
 20
9.017599
 30
0.0
  0
SPLINE
  5
11a
100
AcDbEntity
  8
Layer_1
 62
7
100
AcDbSpline
 70
8
 71
3
 72
8
 73
4
 74
0
 40
0
 40
0
 40
0
 40
0
 40
1
 40
1
 40
1
 40
1
 10
38.919092
 20
9.017599
 30
0.0
 10
42.857221
 20
12.703768
 30
0.0
 10
46.684734
 20
18.226964
 30
0.0
 10
45.483036
 20
25.199554
 30
0.0
  0
SPLINE
  5
11b
100
AcDbEntity
  8
Layer_1
 62
7
100
AcDbSpline
 70
8
 71
3
 72
8
 73
4
 74
0
 40
0
 40
0
 40
0
 40
0
 40
1
 40
1
 40
1
 40
1
 10
45.483036
 20
25.199554
 30
0.0
 10
47.953272
 20
23.481563
 30
0.0
 10
49.584101
 20
22.112819
 30
0.0
 10
49.590795
 20
22.143413
 30
0.0
  0
SPLINE
  5
11c
100
AcDbEntity
  8
Layer_1
 62
7
100
AcDbSpline
 70
8
 71
3
 72
8
 73
4
 74
0
 40
0
 40
0
 40
0
 40
0
 40
1
 40
1
 40
1
 40
1
 10
49.590795
 20
22.143413
 30
0.0
 10
49.768956
 20
27.534564
 30
0.0
 10
48.569633
 20
34.146024
 30
0.0
 10
42.789656
 20
38.226666
 30
0.0
  0
SPLINE
  5
11d
100
AcDbEntity
  8
Layer_1
 62
7
100
AcDbSpline
 70
8
 71
3
 72
8
 73
4
 74
0
 40
0
 40
0
 40
0
 40
0
 40
1
 40
1
 40
1
 40
1
 10
42.789656
 20
38.226666
 30
0.0
 10
45.751358
 20
38.758633
 30
0.0
 10
47.872400
 20
38.943926
 30
0.0
 10
47.855497
 20
38.970292
 30
0.0
  0
SPLINE
  5
11e
100
AcDbEntity
  8
Layer_1
 62
7
100
AcDbSpline
 70
8
 71
3
 72
8
 73
4
 74
0
 40
0
 40
0
 40
0
 40
0
 40
1
 40
1
 40
1
 40
1
 10
47.855497
 20
38.970292
 30
0.0
 10
44.169329
 20
42.908419
 30
0.0
 10
38.646131
 20
46.735417
 30
0.0
 10
31.673541
 20
45.533711
 30
0.0
  0
SPLINE
  5
11f
100
AcDbEntity
  8
Layer_1
 62
7
100
AcDbSpline
 70
8
 71
3
 72
8
 73
4
 74
0
 40
0
 40
0
 40
0
 40
0
 40
1
 40
1
 40
1
 40
1
 10
31.673541
 20
45.533711
 30
0.0
 10
33.391717
 20
48.004275
 30
0.0
 10
34.760799
 20
49.634781
 30
0.0
 10
34.730201
 20
49.641474
 30
0.0
  0
SPLINE
  5
120
100
AcDbEntity
  8
Layer_1
 62
7
100
AcDbSpline
 70
8
 71
3
 72
8
 73
4
 74
0
 40
0
 40
0
 40
0
 40
0
 40
1
 40
1
 40
1
 40
1
 10
34.730201
 20
49.641474
 30
0.0
 10
34.236399
 20
49.657795
 30
0.0
 10
33.732160
 20
49.662557
 30
0.0
 10
33.220733
 20
49.653356
 30
0.0
  0
LWPOLYLINE
  5
121
100
AcDbEntity
  8
Layer_1
 62
7
100
AcDbPolyline
 90
1
 70
1
 10
20.556389
 20
56.873074
 30
0.0
  0
SPLINE
  5
122
100
AcDbEntity
  8
Layer_1
 62
7
100
AcDbSpline
 70
8
 71
3
 72
8
 73
4
 74
0
 40
0
 40
0
 40
0
 40
0
 40
1
 40
1
 40
1
 40
1
 10
28.896965
 20
44.411302
 30
0.0
 10
25.092890
 20
43.525559
 30
0.0
 10
20.693271
 20
41.447564
 30
0.0
 10
18.922381
 20
36.640202
 30
0.0
  0
SPLINE
  5
123
100
AcDbEntity
  8
Layer_1
 62
7
100
AcDbSpline
 70
8
 71
3
 72
8
 73
4
 74
0
 40
0
 40
0
 40
0
 40
0
 40
1
 40
1
 40
1
 40
1
 10
18.922381
 20
36.640202
 30
0.0
 10
17.995223
 20
38.612047
 30
0.0
 10
17.468493
 20
40.060889
 30
0.0
 10
17.453219
 20
40.044127
 30
0.0
  0
SPLINE
  5
124
100
AcDbEntity
  8
Layer_1
 62
7
100
AcDbSpline
 70
8
 71
3
 72
8
 73
4
 74
0
 40
0
 40
0
 40
0
 40
0
 40
1
 40
1
 40
1
 40
1
 10
17.453219
 20
40.044127
 30
0.0
 10
15.389535
 20
36.727749
 30
0.0
 10
13.747538
 20
32.147331
 30
0.0
 10
15.895174
 20
27.495537
 30
0.0
  0
SPLINE
  5
125
100
AcDbEntity
  8
Layer_1
 62
7
100
AcDbSpline
 70
8
 71
3
 72
8
 73
4
 74
0
 40
0
 40
0
 40
0
 40
0
 40
1
 40
1
 40
1
 40
1
 10
15.895174
 20
27.495537
 30
0.0
 10
13.845206
 20
28.234262
 30
0.0
 10
12.447819
 20
28.886584
 30
0.0
 10
12.448873
 20
28.863931
 30
0.0
  0
SPLINE
  5
126
100
AcDbEntity
  8
Layer_1
 62
7
100
AcDbSpline
 70
8
 71
3
 72
8
 73
4
 74
0
 40
0
 40
0
 40
0
 40
0
 40
1
 40
1
 40
1
 40
1
 10
12.448873
 20
28.863931
 30
0.0
 10
13.334616
 20
25.059860
 30
0.0
 10
15.412612
 20
20.660239
 30
0.0
 10
20.219975
 20
18.889345
 30
0.0
  0
SPLINE
  5
127
100
AcDbEntity
  8
Layer_1
 62
7
100
AcDbSpline
 70
8
 71
3
 72
8
 73
4
 74
0
 40
0
 40
0
 40
0
 40
0
 40
1
 40
1
 40
1
 40
1
 10
20.219975
 20
18.889345
 30
0.0
 10
18.248288
 20
17.962279
 30
0.0
 10
16.799286
 20
17.435460
 30
0.0
 10
16.816049
 20
17.420185
 30
0.0
  0
SPLINE
  5
128
100
AcDbEntity
  8
Layer_1
 62
7
100
AcDbSpline
 70
8
 71
3
 72
8
 73
4
 74
0
 40
0
 40
0
 40
0
 40
0
 40
1
 40
1
 40
1
 40
1
 10
16.816049
 20
17.420185
 30
0.0
 10
20.132215
 20
15.356634
 30
0.0
 10
24.712639
 20
13.714609
 30
0.0
 10
29.364121
 20
15.861626
 30
0.0
  0
SPLINE
  5
129
100
AcDbEntity
  8
Layer_1
 62
7
100
AcDbSpline
 70
8
 71
3
 72
8
 73
4
 74
0
 40
0
 40
0
 40
0
 40
0
 40
1
 40
1
 40
1
 40
1
 10
29.364121
 20
15.861626
 30
0.0
 10
28.625490
 20
13.812006
 30
0.0
 10
27.973592
 20
12.414786
 30
0.0
 10
27.996245
 20
12.415840
 30
0.0
  0
SPLINE
  5
12a
100
AcDbEntity
  8
Layer_1
 62
7
100
AcDbSpline
 70
8
 71
3
 72
8
 73
4
 74
0
 40
0
 40
0
 40
0
 40
0
 40
1
 40
1
 40
1
 40
1
 10
27.996245
 20
12.415840
 30
0.0
 10
31.800439
 20
13.301608
 30
0.0
 10
36.200045
 20
15.379765
 30
0.0
 10
37.970832
 20
20.187460
 30
0.0
  0
SPLINE
  5
12b
100
AcDbEntity
  8
Layer_1
 62
7
100
AcDbSpline
 70
8
 71
3
 72
8
 73
4
 74
0
 40
0
 40
0
 40
0
 40
0
 40
1
 40
1
 40
1
 40
1
 10
37.970832
 20
20.187460
 30
0.0
 10
38.898156
 20
18.215320
 30
0.0
 10
39.425231
 20
16.766247
 30
0.0
 10
39.440507
 20
16.783014
 30
0.0
  0
SPLINE
  5
12c
100
AcDbEntity
  8
Layer_1
 62
7
100
AcDbSpline
 70
8
 71
3
 72
8
 73
4
 74
0
 40
0
 40
0
 40
0
 40
0
 40
1
 40
1
 40
1
 40
1
 10
39.440507
 20
16.783014
 30
0.0
 10
41.504214
 20
20.099431
 30
0.0
 10
43.145783
 20
24.679753
 30
0.0
 10
40.998034
 20
29.331605
 30
0.0
  0
SPLINE
  5
12d
100
AcDbEntity
  8
Layer_1
 62
7
100
AcDbSpline
 70
8
 71
3
 72
8
 73
4
 74
0
 40
0
 40
0
 40
0
 40
0
 40
1
 40
1
 40
1
 40
1
 10
40.998034
 20
29.331605
 30
0.0
 10
43.048173
 20
28.592833
 30
0.0
 10
44.445390
 20
27.940557
 30
0.0
 10
44.444335
 20
27.963211
 30
0.0
  0
SPLINE
  5
12e
100
AcDbEntity
  8
Layer_1
 62
7
100
AcDbSpline
 70
8
 71
3
 72
8
 73
4
 74
0
 40
0
 40
0
 40
0
 40
0
 40
1
 40
1
 40
1
 40
1
 10
44.444335
 20
27.963211
 30
0.0
 10
43.558598
 20
31.767280
 30
0.0
 10
41.480598
 20
36.166902
 30
0.0
 10
36.673235
 20
37.937796
 30
0.0
  0
SPLINE
  5
12f
100
AcDbEntity
  8
Layer_1
 62
7
100
AcDbSpline
 70
8
 71
3
 72
8
 73
4
 74
0
 40
0
 40
0
 40
0
 40
0
 40
1
 40
1
 40
1
 40
1
 10
36.673235
 20
37.937796
 30
0.0
 10
38.645083
 20
38.864955
 30
0.0
 10
40.093925
 20
39.392197
 30
0.0
 10
40.077161
 20
39.407473
 30
0.0
  0
SPLINE
  5
130
100
AcDbEntity
  8
Layer_1
 62
7
100
AcDbSpline
 70
8
 71
3
 72
8
 73
4
 74
0
 40
0
 40
0
 40
0
 40
0
 40
1
 40
1
 40
1
 40
1
 10
40.077161
 20
39.407473
 30
0.0
 10
36.760744
 20
41.471182
 30
0.0
 10
32.180417
 20
43.112751
 30
0.0
 10
27.528573
 20
40.964999
 30
0.0
  0
SPLINE
  5
131
100
AcDbEntity
  8
Layer_1
 62
7
100
AcDbSpline
 70
8
 71
3
 72
8
 73
4
 74
0
 40
0
 40
0
 40
0
 40
0
 40
1
 40
1
 40
1
 40
1
 10
27.528573
 20
40.964999
 30
0.0
 10
28.267350
 20
43.015159
 30
0.0
 10
28.919622
 20
44.412356
 30
0.0
 10
28.896965
 20
44.411302
 30
0.0
  0
LWPOLYLINE
  5
132
100
AcDbEntity
  8
Layer_1
 62
7
100
AcDbPolyline
 90
1
 70
1
 10
33.220733
 20
49.653356
 30
0.0
  0
LWPOLYLINE
  5
133
100
AcDbEntity
  8
Layer_1
 62
7
100
AcDbPolyline
 90
1
 70
1
 10
28.896965
 20
44.411302
 30
0.0
  0
SPLINE
  5
134
100
AcDbEntity
  8
Layer_1
 62
7
100
AcDbSpline
 70
8
 71
3
 72
8
 73
4
 74
0
 40
0
 40
0
 40
0
 40
0
 40
1
 40
1
 40
1
 40
1
 10
28.411246
 20
51.234197
 30
0.0
 10
19.200801
 20
51.234197
 30
0.0
 10
10.897276
 20
45.685959
 30
0.0
 10
7.372591
 20
37.176618
 30
0.0
  0
SPLINE
  5
135
100
AcDbEntity
  8
Layer_1
 62
7
100
AcDbSpline
 70
8
 71
3
 72
8
 73
4
 74
0
 40
0
 40
0
 40
0
 40
0
 40
1
 40
1
 40
1
 40
1
 10
7.372591
 20
37.176618
 30
0.0
 10
3.847906
 20
28.667278
 30
0.0
 10
5.796189
 20
18.872603
 30
0.0
 10
12.308957
 20
12.359835
 30
0.0
  0
SPLINE
  5
136
100
AcDbEntity
  8
Layer_1
 62
7
100
AcDbSpline
 70
8
 71
3
 72
8
 73
4
 74
0
 40
0
 40
0
 40
0
 40
0
 40
1
 40
1
 40
1
 40
1
 10
12.308957
 20
12.359835
 30
0.0
 10
18.821725
 20
5.847068
 30
0.0
 10
28.616401
 20
3.898786
 30
0.0
 10
37.125742
 20
7.423470
 30
0.0
  0
SPLINE
  5
137
100
AcDbEntity
  8
Layer_1
 62
7
100
AcDbSpline
 70
8
 71
3
 72
8
 73
4
 74
0
 40
0
 40
0
 40
0
 40
0
 40
1
 40
1
 40
1
 40
1
 10
37.125742
 20
7.423470
 30
0.0
 10
45.635084
 20
10.948154
 30
0.0
 10
51.183322
 20
19.251679
 30
0.0
 10
51.183322
 20
28.462123
 30
0.0
  0
SPLINE
  5
138
100
AcDbEntity
  8
Layer_1
 62
7
100
AcDbSpline
 70
8
 71
3
 72
8
 73
4
 74
0
 40
0
 40
0
 40
0
 40
0
 40
1
 40
1
 40
1
 40
1
 10
51.183322
 20
28.462123
 30
0.0
 10
51.183322
 20
34.501653
 30
0.0
 10
48.784128
 20
40.293819
 30
0.0
 10
44.513535
 20
44.564411
 30
0.0
  0
SPLINE
  5
139
100
AcDbEntity
  8
Layer_1
 62
7
100
AcDbSpline
 70
8
 71
3
 72
8
 73
4
 74
0
 40
0
 40
0
 40
0
 40
0
 40
1
 40
1
 40
1
 40
1
 10
44.513535
 20
44.564411
 30
0.0
 10
40.242943
 20
48.835003
 30
0.0
 10
34.450776
 20
51.234197
 30
0.0
 10
28.411246
 20
51.234197
 30
0.0
  0
LWPOLYLINE
  5
13a
100
AcDbEntity
  8
Layer_1
 62
7
100
AcDbPolyline
 90
48
 70
1
 10
28.411250
 20
35.565562
 30
0.0
 10
27.584943
 20
34.739256
 30
0.0
 10
26.572602
 20
35.323717
 30
0.0
 10
25.988142
 20
34.311375
 30
0.0
 10
24.859528
 20
34.613682
 30
0.0
 10
24.557221
 20
33.485069
 30
0.0
 10
23.388300
 20
33.485069
 30
0.0
 10
23.388300
 20
32.316148
 30
0.0
 10
22.259170
 20
32.013841
 30
0.0
 10
22.561477
 20
30.885228
 30
0.0
 10
21.549653
 20
30.300767
 30
0.0
 10
22.134113
 20
29.288426
 30
0.0
 10
21.307807
 20
28.462120
 30
0.0
 10
22.134113
 20
27.635814
 30
0.0
 10
21.549653
 20
26.623472
 30
0.0
 10
22.561994
 20
26.039012
 30
0.0
 10
22.259170
 20
24.910399
 30
0.0
 10
23.388300
 20
24.608092
 30
0.0
 10
23.388300
 20
23.439171
 30
0.0
 10
24.557221
 20
23.439171
 30
0.0
 10
24.859528
 20
22.310557
 30
0.0
 10
25.988142
 20
22.612865
 30
0.0
 10
26.572602
 20
21.600523
 30
0.0
 10
27.584943
 20
22.184984
 30
0.0
 10
28.411250
 20
21.358678
 30
0.0
 10
29.237556
 20
22.184984
 30
0.0
 10
30.249897
 20
21.600523
 30
0.0
 10
30.834357
 20
22.612865
 30
0.0
 10
31.962971
 20
22.310557
 30
0.0
 10
32.265278
 20
23.439171
 30
0.0
 10
33.434199
 20
23.439171
 30
0.0
 10
33.434199
 20
24.608092
 30
0.0
 10
34.562812
 20
24.910399
 30
0.0
 10
34.260505
 20
26.039012
 30
0.0
 10
35.272846
 20
26.623472
 30
0.0
 10
34.688386
 20
27.635814
 30
0.0
 10
35.514692
 20
28.462120
 30
0.0
 10
34.688386
 20
29.288426
 30
0.0
 10
35.272846
 20
30.300767
 30
0.0
 10
34.260505
 20
30.885228
 30
0.0
 10
34.562812
 20
32.013841
 30
0.0
 10
33.434199
 20
32.316148
 30
0.0
 10
33.434199
 20
33.485069
 30
0.0
 10
32.265278
 20
33.485069
 30
0.0
 10
31.962971
 20
34.613682
 30
0.0
 10
30.834357
 20
34.311375
 30
0.0
 10
30.249897
 20
35.323717
 30
0.0
 10
29.237556
 20
34.739256
 30
0.0
  0
LWPOLYLINE
  5
13b
100
AcDbEntity
  8
Layer_1
 62
7
100
AcDbPolyline
 90
1
 70
1
 10
28.411246
 20
51.234197
 30
0.0
  0
ENDSEC
  0
SECTION
  2
OBJECTS
  0
DICTIONARY
  5
C
330
0
100
AcDbDictionary
  3
ACAD_GROUP
350
D
  3
ACAD_MLINESTYLE
350
17
  0
DICTIONARY
  5
D
330
C
100
AcDbDictionary
  0
DICTIONARY
  5
1A
330
C
100
AcDbDictionary
  0
DICTIONARY
  5
17
330
C
100
AcDbDictionary
  3
STANDARD
350
18
  0
DICTIONARY
  5
19
330
C
100
AcDbDictionary
  0
ENDSEC
  0
EOF
