<?xml version="1.0" encoding="UTF-8" standalone="no"?>
<!-- Created with Inkscape (http://www.inkscape.org/) -->

<svg
   width="56.873093mm"
   height="56.873093mm"
   viewBox="0 0 56.873093 56.873093"
   version="1.1"
   id="svg1"
   inkscape:version="1.3.2 (091e20e, 2023-11-25, custom)"
   sodipodi:docname="Player.svg"
   xmlns:inkscape="http://www.inkscape.org/namespaces/inkscape"
   xmlns:sodipodi="http://sodipodi.sourceforge.net/DTD/sodipodi-0.dtd"
   xmlns="http://www.w3.org/2000/svg"
   xmlns:svg="http://www.w3.org/2000/svg">
  <sodipodi:namedview
     id="namedview1"
     pagecolor="#505050"
     bordercolor="#ffffff"
     borderopacity="1"
     inkscape:showpageshadow="0"
     inkscape:pageopacity="0"
     inkscape:pagecheckerboard="1"
     inkscape:deskcolor="#505050"
     inkscape:document-units="mm"
     inkscape:zoom="2.8284271"
     inkscape:cx="185.61553"
     inkscape:cy="150.43697"
     inkscape:window-width="3440"
     inkscape:window-height="1369"
     inkscape:window-x="1912"
     inkscape:window-y="-8"
     inkscape:window-maximized="1"
     inkscape:current-layer="layer1" />
  <defs
     id="defs1">
    <inkscape:path-effect
       effect="copy_rotate"
       starting_point="107.52318,126.66643"
       origin="79.811158,126.66643"
       id="path-effect44"
       is_visible="true"
       lpeversion="1.2"
       lpesatellites=""
       method="normal"
       num_copies="8"
       starting_angle="0"
       rotation_angle="45"
       gap="-0.01"
       copies_to_360="true"
       mirror_copies="false"
       split_items="false"
       link_styles="false" />
    <inkscape:path-effect
       effect="clone_original"
       css_properties=""
       attributes="style,clip-path,mask"
       linkeditem=""
       is_visible="true"
       method="none"
       allow_transforms="true"
       id="path-effect43"
       lpeversion="1" />
    <inkscape:path-effect
       effect="clone_original"
       linkeditem=""
       id="path-effect8"
       is_visible="true"
       lpeversion="1"
       method="none"
       attributes=""
       css_properties=""
       allow_transforms="true" />
    <inkscape:path-effect
       origin="52.823658,122.56539"
       starting_point="152.82366,122.56539"
       effect="copy_rotate"
       id="path-effect6"
       is_visible="true"
       lpeversion="1.2"
       lpesatellites=""
       method="normal"
       num_copies="6"
       starting_angle="0"
       rotation_angle="60"
       gap="-0.01"
       copies_to_360="true"
       mirror_copies="false"
       split_items="false"
       link_styles="false" />
    <inkscape:path-effect
       effect="clone_original"
       css_properties=""
       attributes="style,clip-path,mask"
       linkeditem=""
       is_visible="true"
       method="d"
       allow_transforms="true"
       id="path-effect7"
       lpeversion="1" />
    <inkscape:path-effect
       effect="clone_original"
       css_properties=""
       attributes="style,clip-path,mask"
       linkeditem="#path1"
       is_visible="true"
       method="d"
       allow_transforms="true"
       id="path-effect5"
       lpeversion="1" />
    <inkscape:path-effect
       effect="copy_rotate"
       starting_point="82.62774,133.6225"
       origin="54.109531,133.6225"
       id="path-effect4"
       is_visible="true"
       lpeversion="1.2"
       lpesatellites=""
       method="normal"
       num_copies="7"
       starting_angle="0"
       rotation_angle="51.428571"
       gap="-0.01"
       copies_to_360="true"
       mirror_copies="false"
       split_items="false"
       link_styles="false" />
    <inkscape:path-effect
       effect="copy_rotate"
       starting_point="12.121105,7.5"
       origin="0,7.5"
       id="path-effect3"
       is_visible="true"
       lpeversion="1.2"
       lpesatellites=""
       method="normal"
       num_copies="47"
       starting_angle="0"
       rotation_angle="7.6595745"
       gap="0"
       copies_to_360="true"
       mirror_copies="false"
       split_items="false"
       link_styles="false" />
    <inkscape:path-effect
       effect="copy_rotate"
       starting_point="12.122653,0"
       origin="0,0"
       id="path-effect1"
       is_visible="true"
       lpeversion="1.2"
       lpesatellites=""
       method="normal"
       num_copies="6"
       starting_angle="0"
       rotation_angle="60"
       gap="0"
       copies_to_360="true"
       mirror_copies="false"
       split_items="false"
       link_styles="false" />
    <inkscape:path-effect
       effect="clone_original"
       linkeditem=""
       id="path-effect8-5"
       is_visible="true"
       lpeversion="1"
       method="d"
       attributes=""
       css_properties=""
       allow_transforms="true" />
    <inkscape:path-effect
       effect="copy_rotate"
       starting_point="179.81116,126.66643"
       origin="79.811158,126.66643"
       id="path-effect44-0"
       is_visible="true"
       lpeversion="1.2"
       lpesatellites=""
       method="normal"
       num_copies="8"
       starting_angle="0"
       rotation_angle="45"
       gap="-0.01"
       copies_to_360="true"
       mirror_copies="false"
       split_items="false"
       link_styles="false" />
    <inkscape:path-effect
       effect="copy_rotate"
       starting_point="179.81116,126.66643"
       origin="79.811158,126.66643"
       id="path-effect44-4"
       is_visible="true"
       lpeversion="1.2"
       lpesatellites=""
       method="normal"
       num_copies="8"
       starting_angle="0"
       rotation_angle="45"
       gap="-0.01"
       copies_to_360="true"
       mirror_copies="false"
       split_items="false"
       link_styles="false" />
    <inkscape:path-effect
       effect="copy_rotate"
       starting_point="179.81116,126.66643"
       origin="79.811158,126.66643"
       id="path-effect44-4-1"
       is_visible="true"
       lpeversion="1.2"
       lpesatellites=""
       method="normal"
       num_copies="8"
       starting_angle="0"
       rotation_angle="45"
       gap="-0.01"
       copies_to_360="true"
       mirror_copies="false"
       split_items="false"
       link_styles="false" />
  </defs>
  <g
     inkscape:label="Layer 1"
     inkscape:groupmode="layer"
     id="layer1"
     transform="translate(-63.942321,-64.363219)">
    <path
       id="path1-4"
       style="fill:#e31111;fill-opacity:1;stroke-width:0.665001"
       d="m 73.675489,109.33393 c -15.039973,7.75203 -15.864551,6.67642 -11.796331,14.5693 4.068215,7.89287 2.916946,5.13509 17.956919,-2.61695 9.992546,-5.15045 28.447823,-2.39888 28.411573,-2.49977 -5.31017,-9.12081 -15.81945,-19.118273 -34.572161,-9.45258 z m -10.458834,9.41515 c -5.153354,16.11638 -6.496989,15.93887 1.960786,18.64331 8.457764,2.70444 5.693649,1.56847 10.846996,-14.54792 3.423879,-10.70772 18.419384,-21.81191 18.322411,-21.85762 -10.204244,-2.69453 -24.704701,-2.332621 -31.130193,17.76223 z m -0.737999,14.05302 c 7.75203,15.03997 6.67642,15.86455 14.5693,11.79633 7.89287,-4.06821 5.13509,-2.91694 -2.61695,-17.95692 -5.15045,-9.99254 -2.39888,-28.44782 -2.49977,-28.41157 -9.12081,5.31017 -19.118273,15.81945 -9.45258,34.57216 z m 9.415146,10.45883 c 16.116379,5.15336 15.938873,6.49699 18.643316,-1.96078 2.704439,-8.45777 1.568465,-5.69365 -14.547922,-10.847 -10.707715,-3.42388 -21.811913,-18.41938 -21.857621,-18.32241 -2.694529,10.20425 -2.33262,24.7047 17.762227,31.13019 z m 14.053025,0.738 c 15.039973,-7.75203 15.864553,-6.67642 11.796331,-14.5693 -4.068215,-7.89287 -2.916946,-5.13509 -17.956919,2.61695 -9.992546,5.15045 -28.447823,2.39888 -28.411573,2.49977 5.31017,9.12081 15.81945,19.11828 34.572161,9.45258 z m 10.458833,-9.41514 c 5.15335,-16.11638 6.49699,-15.93888 -1.960785,-18.64332 -8.457764,-2.70444 -5.693649,-1.56846 -10.846996,14.54792 -3.423879,10.70772 -18.419384,21.81192 -18.322411,21.85762 10.204243,2.69453 24.7047,2.33262 31.130192,-17.76222 z m 0.738,-14.05303 c -7.75203,-15.03997 -6.67642,-15.86455 -14.5693,-11.79633 -7.89287,4.06822 -5.13509,2.91695 2.61695,17.95692 5.15045,9.99255 2.39888,28.44782 2.49977,28.41157 9.12081,-5.31017 19.11827,-15.81945 9.45258,-34.57216 z m -9.415146,-10.45883 c -16.11638,-5.15335 -15.938873,-6.49699 -18.643316,1.96078 -2.70444,8.45777 -1.568465,5.69365 14.547922,10.847 10.707715,3.42388 21.81191,18.41938 21.85762,18.32241 2.69453,-10.20424 2.33262,-24.7047 -17.762226,-31.13019 z"
       sodipodi:nodetypes="sssss"
       inkscape:label="path1"
       inkscape:transform-center-x="-0.16802692"
       inkscape:transform-center-y="-0.13241986"
       transform="translate(12.567709,-33.866667)"
       inkscape:path-effect="#path-effect44"
       inkscape:original-d="m 73.675489,109.33393 c -15.039973,7.75203 -15.864551,6.67642 -11.796331,14.5693 4.068215,7.89287 2.916946,5.13509 17.956919,-2.61695 9.992546,-5.15045 28.447823,-2.39888 28.411573,-2.49977 -5.31017,-9.12081 -15.81945,-19.118273 -34.572161,-9.45258 z" />
    <path
       id="path1-4-8"
       style="fill:#f79494;fill-opacity:1;stroke-width:0.665001"
       d="m 73.675489,109.33393 c -15.039973,7.75203 -15.864551,6.67642 -11.796331,14.5693 4.068215,7.89287 2.916946,5.13509 17.956919,-2.61695 9.992546,-5.15045 28.447823,-2.39888 28.411573,-2.49977 -5.31017,-9.12081 -15.81945,-19.118273 -34.572161,-9.45258 z m -10.458832,9.41514 c -5.153354,16.11638 -6.49699,15.93888 1.960785,18.64332 8.457764,2.70444 5.693649,1.56847 10.846996,-14.54792 3.423879,-10.70772 18.419384,-21.81191 18.322411,-21.85762 -10.204243,-2.694531 -24.7047,-2.332621 -31.130192,17.76222 z m -0.737999,14.05303 c 7.75203,15.03997 6.67642,15.86455 14.5693,11.79633 7.89287,-4.06821 5.13509,-2.91695 -2.61695,-17.95692 -5.15045,-9.99254 -2.39888,-28.447822 -2.49977,-28.411572 -9.12081,5.310172 -19.118273,15.819452 -9.45258,34.572162 z m 9.415145,10.45883 c 16.11638,5.15336 15.938873,6.49699 18.643316,-1.96078 2.70444,-8.45777 1.568465,-5.69365 -14.547922,-10.847 -10.707715,-3.42388 -21.811913,-18.41938 -21.85762,-18.32241 -2.69453,10.20424 -2.33262,24.7047 17.762226,31.13019 z m 14.053024,0.738 c 15.039973,-7.75203 15.864553,-6.67642 11.796331,-14.5693 -4.068215,-7.89287 -2.916946,-5.13509 -17.956919,2.61695 -9.992546,5.15045 -28.447823,2.39888 -28.411573,2.49977 5.31017,9.12081 15.81945,19.11827 34.572161,9.45258 z m 10.458832,-9.41514 c 5.153351,-16.11638 6.496991,-15.93888 -1.960785,-18.64332 -8.457764,-2.70444 -5.693649,-1.56847 -10.846996,14.54792 -3.423879,10.70772 -18.419384,21.81191 -18.322411,21.85762 10.204243,2.69453 24.7047,2.33262 31.130192,-17.76222 z m 0.737999,-14.05303 c -7.75203,-15.03997 -6.67642,-15.86455 -14.5693,-11.79633 -7.89287,4.06821 -5.13509,2.91695 2.61695,17.95692 5.15045,9.99254 2.39888,28.44782 2.49977,28.41157 9.12081,-5.31017 19.118272,-15.81945 9.45258,-34.57216 z m -9.415145,-10.45883 c -16.11638,-5.15336 -15.938873,-6.49699 -18.643316,1.96078 -2.70444,8.45777 -1.568465,5.69365 14.547922,10.847 10.707715,3.42388 21.811911,18.41938 21.857621,18.32241 2.69453,-10.20424 2.33262,-24.7047 -17.762227,-31.13019 z"
       sodipodi:nodetypes="sssss"
       inkscape:label="path1"
       inkscape:transform-center-x="-0.10053728"
       inkscape:transform-center-y="-0.12477704"
       transform="matrix(0.73011558,-0.16720676,0.16720676,0.73011558,12.902696,13.638004)"
       inkscape:path-effect="#path-effect44-4"
       inkscape:original-d="m 73.675489,109.33393 c -15.039973,7.75203 -15.864551,6.67642 -11.796331,14.5693 4.068215,7.89287 2.916946,5.13509 17.956919,-2.61695 9.992546,-5.15045 28.447823,-2.39888 28.411573,-2.49977 -5.31017,-9.12081 -15.81945,-19.118273 -34.572161,-9.45258 z" />
    <path
       id="path1-4-8-9"
       style="fill:#ffffff;fill-opacity:1;stroke-width:0.665001"
       d="m 73.675489,109.33393 c -15.039973,7.75203 -15.864551,6.67642 -11.796331,14.5693 4.068215,7.89287 2.916946,5.13509 17.956919,-2.61695 9.992546,-5.15045 28.447823,-2.39888 28.411573,-2.49977 -5.31017,-9.12081 -15.81945,-19.118273 -34.572161,-9.45258 z m -10.458832,9.41514 c -5.153354,16.11638 -6.49699,15.93888 1.960785,18.64332 8.457764,2.70444 5.693649,1.56847 10.846996,-14.54792 3.423879,-10.70772 18.419384,-21.81191 18.322411,-21.85762 -10.204243,-2.694531 -24.7047,-2.332621 -31.130192,17.76222 z m -0.737999,14.05303 c 7.75203,15.03997 6.67642,15.86455 14.5693,11.79633 7.89287,-4.06821 5.13509,-2.91695 -2.61695,-17.95692 -5.15045,-9.99254 -2.39888,-28.447822 -2.49977,-28.411572 -9.12081,5.310172 -19.118273,15.819452 -9.45258,34.572162 z m 9.415145,10.45883 c 16.11638,5.15336 15.938873,6.49699 18.643316,-1.96078 2.70444,-8.45777 1.568465,-5.69365 -14.547922,-10.847 -10.707715,-3.42388 -21.811913,-18.41938 -21.85762,-18.32241 -2.69453,10.20424 -2.33262,24.7047 17.762226,31.13019 z m 14.053024,0.738 c 15.039973,-7.75203 15.864553,-6.67642 11.796331,-14.5693 -4.068215,-7.89287 -2.916946,-5.13509 -17.956919,2.61695 -9.992546,5.15045 -28.447823,2.39888 -28.411573,2.49977 5.31017,9.12081 15.81945,19.11827 34.572161,9.45258 z m 10.458832,-9.41514 c 5.153351,-16.11638 6.496991,-15.93888 -1.960785,-18.64332 -8.457764,-2.70444 -5.693649,-1.56847 -10.846996,14.54792 -3.423879,10.70772 -18.419384,21.81191 -18.322411,21.85762 10.204243,2.69453 24.7047,2.33262 31.130192,-17.76222 z m 0.737999,-14.05303 c -7.75203,-15.03997 -6.67642,-15.86455 -14.5693,-11.79633 -7.89287,4.06821 -5.13509,2.91695 2.61695,17.95692 5.15045,9.99254 2.39888,28.44782 2.49977,28.41157 9.12081,-5.31017 19.118272,-15.81945 9.45258,-34.57216 z m -9.415145,-10.45883 c -16.11638,-5.15336 -15.938873,-6.49699 -18.643316,1.96078 -2.70444,8.45777 -1.568465,5.69365 14.547922,10.847 10.707715,3.42388 21.811911,18.41938 21.857621,18.32241 2.69453,-10.20424 2.33262,-24.7047 -17.762227,-31.13019 z"
       sodipodi:nodetypes="sssss"
       inkscape:label="path1"
       inkscape:transform-center-x="-0.10822234"
       inkscape:transform-center-y="-0.04184608"
       transform="matrix(0.51838355,0.15948448,-0.15948448,0.51838355,71.21751,14.432243)"
       inkscape:path-effect="#path-effect44-4-1"
       inkscape:original-d="m 73.675489,109.33393 c -15.039973,7.75203 -15.864551,6.67642 -11.796331,14.5693 4.068215,7.89287 2.916946,5.13509 17.956919,-2.61695 9.992546,-5.15045 28.447823,-2.39888 28.411573,-2.49977 -5.31017,-9.12081 -15.81945,-19.118273 -34.572161,-9.45258 z" />
    <path
       id="rect44"
       style="fill:#480000;fill-opacity:1;stroke:none;stroke-width:0.665001"
       d="m 92.35355,85.670731 -0.826307,0.826306 -1.012341,-0.584461 -0.58446,1.012342 -1.128614,-0.302307 -0.302307,1.128613 H 87.3306 v 1.168921 l -1.12913,0.302307 0.302307,1.128613 -1.011824,0.584461 0.58446,1.012341 -0.826306,0.826306 0.826306,0.826306 -0.58446,1.012342 1.012341,0.58446 -0.302824,1.128613 1.12913,0.302307 v 1.168921 h 1.168921 l 0.302307,1.128614 1.128614,-0.302308 0.58446,1.012342 1.012341,-0.584461 0.826307,0.826306 0.826306,-0.826306 1.012341,0.584461 0.58446,-1.012342 1.128614,0.302308 0.302307,-1.128614 h 1.168921 v -1.168921 l 1.128613,-0.302307 -0.302307,-1.128613 1.012341,-0.58446 -0.58446,-1.012342 0.826306,-0.826306 -0.826306,-0.826306 0.58446,-1.012341 -1.012341,-0.584461 0.302307,-1.128613 -1.128613,-0.302307 v -1.168921 h -1.168921 l -0.302307,-1.128613 -1.128614,0.302307 -0.58446,-1.012342 -1.012341,0.584461 z" />
    <ellipse
       style="fill:none;fill-opacity:1;stroke:#000000;stroke-width:0.677338;stroke-opacity:1"
       id="path44"
       cx="92.353546"
       cy="92.77417"
       rx="22.772076"
       ry="22.772074" />
  </g>
</svg>
