# OBJ generated by ONSHAPE BY PTC INC, 1.191 Units = meters
mtllib Player - HitboxFeet.mtl
g HitboxFeet
v 0.00862467 0.00189843 -0.0196076 
v 0.00801492 0.0037081 -0.0196076 
v 0.00703041 0.00534438 -0.0196076 
v 0.00571716 0.00673076 -0.0196076 
v 0.00413658 0.00780242 -0.0196076 
v 0.00236258 0.00850924 -0.0196076 
v 0.000478108 0.00881818 -0.0196076 
v -0.00142872 0.0087148 -0.0196076 
v -0.00326874 0.00820392 -0.0196076 
v -0.00495592 0.00730943 -0.0196076 
v -0.00641137 0.00607317 -0.0196076 
v -0.00756702 0.00455293 -0.0196076 
v -0.00836885 0.0028198 -0.0196076 
v -0.00877937 0.000954814 -0.0196076 
v -0.00877937 -0.000954814 -0.0196076 
v -0.00836885 -0.0028198 -0.0196076 
v -0.00756702 -0.00455293 -0.0196076 
v -0.00641137 -0.00607317 -0.0196076 
v -0.00495592 -0.00730943 -0.0196076 
v -0.00326874 -0.00820392 -0.0196076 
v -0.00142872 -0.0087148 -0.0196076 
v 0.000478108 -0.00881818 -0.0196076 
v 0.00236258 -0.00850924 -0.0196076 
v 0.00413658 -0.00780242 -0.0196076 
v 0.00571716 -0.00673076 -0.0196076 
v 0.00703041 -0.00534438 -0.0196076 
v 0.00801492 -0.0037081 -0.0196076 
v 0.00862467 -0.00189843 -0.0196076 
v 0.00883114 0 -0.0196076 
v 0 0 -0.0196076 
v 0.00424884 -1.04066e-18 -0.025 
v 0.0041495 0.000913374 -0.025 
v 0.00385614 0.00178404 -0.025 
v 0.00338247 0.00257129 -0.025 
v 0.00275064 0.0032383 -0.025 
v 0.00199019 0.0037539 -0.025 
v 0.00113668 0.00409397 -0.025 
v 0.000230027 0.00424261 -0.025 
v -0.000687385 0.00419286 -0.025 
v -0.00157266 0.00394707 -0.025 
v -0.00238439 0.00351672 -0.025 
v -0.00308464 0.00292192 -0.025 
v -0.00364065 0.0021905 -0.025 
v -0.00402642 0.00135666 -0.025 
v -0.00422393 0.00045938 -0.025 
v -0.00422393 -0.00045938 -0.025 
v -0.00402642 -0.00135666 -0.025 
v -0.00364065 -0.0021905 -0.025 
v -0.00308464 -0.00292192 -0.025 
v -0.00238439 -0.00351672 -0.025 
v -0.00157266 -0.00394707 -0.025 
v -0.000687385 -0.00419286 -0.025 
v 0.000230027 -0.00424261 -0.025 
v 0.00113668 -0.00409397 -0.025 
v 0.00199019 -0.0037539 -0.025 
v 0.00275064 -0.0032383 -0.025 
v 0.00338247 -0.00257129 -0.025 
v 0.00385614 -0.00178404 -0.025 
v 0.0041495 -0.000913374 -0.025 
v 0 0 -0.025 
vn 0 0 1 
vn 0.762027 0 -0.647545 
vn 0.744211 0.163813 -0.647545 
vn 0.691597 0.319967 -0.647545 
vn 0.606644 0.461159 -0.647545 
vn 0.493326 0.580788 -0.647545 
vn 0.35694 0.67326 -0.647545 
vn 0.203864 0.734251 -0.647545 
vn 0.0412553 0.760909 -0.647545 
vn -0.123282 0.751988 -0.647545 
vn -0.282055 0.707905 -0.647545 
vn -0.42764 0.630721 -0.647545 
vn -0.553228 0.524045 -0.647545 
vn -0.652948 0.392866 -0.647545 
vn -0.722137 0.243316 -0.647545 
vn -0.75756 0.0823896 -0.647545 
vn -0.75756 -0.0823896 -0.647545 
vn -0.722137 -0.243316 -0.647545 
vn -0.652948 -0.392866 -0.647545 
vn -0.553228 -0.524045 -0.647545 
vn -0.42764 -0.630721 -0.647545 
vn -0.282055 -0.707905 -0.647545 
vn -0.123282 -0.751988 -0.647545 
vn 0.0412553 -0.760909 -0.647545 
vn 0.203864 -0.734251 -0.647545 
vn 0.35694 -0.67326 -0.647545 
vn 0.493326 -0.580788 -0.647545 
vn 0.606644 -0.461159 -0.647545 
vn 0.691597 -0.319967 -0.647545 
vn 0.744211 -0.163813 -0.647545 
vn 0 0 -1 
usemtl 0.917647_0.917647_0.917647_0.000000_0.000000
o mesh0
f 30//1 1//1 2//1 
f 2//1 3//1 30//1 
f 3//1 4//1 30//1 
f 4//1 5//1 30//1 
f 5//1 6//1 30//1 
f 6//1 7//1 30//1 
f 7//1 8//1 30//1 
f 8//1 9//1 30//1 
f 9//1 10//1 30//1 
f 10//1 11//1 30//1 
f 11//1 12//1 30//1 
f 12//1 13//1 30//1 
f 13//1 14//1 30//1 
f 14//1 15//1 30//1 
f 15//1 16//1 30//1 
f 16//1 17//1 30//1 
f 17//1 18//1 30//1 
f 18//1 19//1 30//1 
f 19//1 20//1 30//1 
f 20//1 21//1 30//1 
f 21//1 22//1 30//1 
f 22//1 23//1 30//1 
f 23//1 24//1 30//1 
f 24//1 25//1 30//1 
f 25//1 26//1 30//1 
f 26//1 27//1 30//1 
f 27//1 28//1 30//1 
f 28//1 29//1 30//1 
f 29//1 1//1 30//1 
o mesh1
f 29//2 31//2 32//3 
f 1//3 32//3 33//4 
f 2//4 33//4 34//5 
f 3//5 34//5 35//6 
f 4//6 35//6 36//7 
f 5//7 36//7 37//8 
f 6//8 37//8 38//9 
f 7//9 38//9 39//10 
f 8//10 39//10 40//11 
f 9//11 40//11 41//12 
f 10//12 41//12 42//13 
f 11//13 42//13 43//14 
f 12//14 43//14 44//15 
f 13//15 44//15 45//16 
f 14//16 45//16 46//17 
f 15//17 46//17 47//18 
f 16//18 47//18 48//19 
f 17//19 48//19 49//20 
f 18//20 49//20 50//21 
f 19//21 50//21 51//22 
f 20//22 51//22 52//23 
f 21//23 52//23 53//24 
f 22//24 53//24 54//25 
f 23//25 54//25 55//26 
f 24//26 55//26 56//27 
f 25//27 56//27 57//28 
f 26//28 57//28 58//29 
f 27//29 58//29 59//30 
f 28//30 59//30 31//2 
f 31//2 29//2 28//30 
f 59//30 28//30 27//29 
f 58//29 27//29 26//28 
f 57//28 26//28 25//27 
f 56//27 25//27 24//26 
f 55//26 24//26 23//25 
f 54//25 23//25 22//24 
f 53//24 22//24 21//23 
f 52//23 21//23 20//22 
f 51//22 20//22 19//21 
f 50//21 19//21 18//20 
f 49//20 18//20 17//19 
f 48//19 17//19 16//18 
f 47//18 16//18 15//17 
f 46//17 15//17 14//16 
f 45//16 14//16 13//15 
f 44//15 13//15 12//14 
f 43//14 12//14 11//13 
f 42//13 11//13 10//12 
f 41//12 10//12 9//11 
f 40//11 9//11 8//10 
f 39//10 8//10 7//9 
f 38//9 7//9 6//8 
f 37//8 6//8 5//7 
f 36//7 5//7 4//6 
f 35//6 4//6 3//5 
f 34//5 3//5 2//4 
f 33//4 2//4 1//3 
f 32//3 1//3 29//2 
o mesh2
f 60//31 59//31 58//31 
f 58//31 57//31 60//31 
f 57//31 56//31 60//31 
f 56//31 55//31 60//31 
f 55//31 54//31 60//31 
f 54//31 53//31 60//31 
f 53//31 52//31 60//31 
f 52//31 51//31 60//31 
f 51//31 50//31 60//31 
f 50//31 49//31 60//31 
f 49//31 48//31 60//31 
f 48//31 47//31 60//31 
f 47//31 46//31 60//31 
f 46//31 45//31 60//31 
f 45//31 44//31 60//31 
f 44//31 43//31 60//31 
f 43//31 42//31 60//31 
f 42//31 41//31 60//31 
f 41//31 40//31 60//31 
f 40//31 39//31 60//31 
f 39//31 38//31 60//31 
f 38//31 37//31 60//31 
f 37//31 36//31 60//31 
f 36//31 35//31 60//31 
f 35//31 34//31 60//31 
f 34//31 33//31 60//31 
f 33//31 32//31 60//31 
f 32//31 31//31 60//31 
f 31//31 59//31 60//31 
