# OBJ generated by ONSHAPE BY PTC INC, 1.191 Units = meters
mtllib Player - Hitbox Top.mtl
g Hitbox Top
v -0.0145355 -0.0256796 0.005 
v -0.0145355 -0.0256796 0 
v -0.0145353 -0.0256796 0 
v -0.0145353 -0.0256796 0.005 
v 0.0284366 0.00787977 0 
v 0.0284366 0.00787977 0.005 
v 0.0294617 0.00165512 0.005 
v 0.0294617 0.00165512 0 
v 0.0291403 -0.00464519 0.005 
v 0.0291403 -0.00464519 0 
v 0.027487 -0.0107332 0.005 
v 0.027487 -0.0107332 0 
v 0.0245774 -0.0163306 0.005 
v 0.0245774 -0.0163306 0 
v 0.0205444 -0.0211817 0.005 
v 0.0205444 -0.0211817 0 
v 0.0155725 -0.0250646 0.005 
v 0.0155725 -0.0250646 0 
v 0.00988878 -0.0278019 0.005 
v 0.00988878 -0.0278019 0 
v 0.00375312 -0.0292685 0.005 
v 0.00375312 -0.0292685 0 
v -0.00255407 -0.0293973 0.005 
v -0.00255407 -0.0293973 0 
v -0.00874451 -0.0281825 0.005 
v -0.00874451 -0.0281825 0 
v 0.0284365 0.00788009 0.005 
v 0.0284365 0.00788009 0 
v 0.0284365 0.00788014 0 
v 0.0284366 0.00787993 0.005 
v 0.0284366 0.00787993 0 
v 0.0284365 0.00788014 0.005 
v 0.0284364 0.00788032 0 
v 0.0284364 0.00788032 0.005 
v 0.0145359 0.0256792 0 
v 0.0145359 0.0256792 0.005 
v 0.0192663 0.0223501 0.005 
v 0.0192663 0.0223501 0 
v 0.0232563 0.0181622 0.005 
v 0.0232563 0.0181622 0 
v 0.0263527 0.0132763 0.005 
v 0.0263527 0.0132763 0 
v 0.0145357 0.0256795 0.005 
v 0.0145357 0.0256795 0 
v 0.0145355 0.0256796 0 
v 0.0145358 0.0256794 0.005 
v 0.0145358 0.0256794 -8.67362e-19 
v 0.0145359 0.0256793 0 
v 0.0145359 0.0256793 0.005 
v 0.0145355 0.0256796 0.005 
v 0.014535 0.0256797 0 
v 0.014535 0.0256797 0.005 
v -0.00787919 0.0284362 0 
v -0.00787919 0.0284362 0.005 
v -0.00218048 0.029427 0.005 
v -0.00218048 0.029427 0 
v 0.00360202 0.0292871 0.005 
v 0.00360202 0.0292871 0 
v 0.00924613 0.0280218 0.005 
v 0.00924613 0.0280218 0 
v -0.00787997 0.0284366 8.67362e-19 
v -0.00788014 0.0284365 0 
v -0.00788014 0.0284365 0.005 
v -0.00787982 0.0284366 0.005 
v -0.00787982 0.0284366 -8.67362e-19 
v -0.00787967 0.0284365 8.67362e-19 
v -0.00787952 0.0284365 0.005 
v -0.00787952 0.0284365 0 
v -0.00787937 0.0284364 0.005 
v -0.00787937 0.0284364 0 
v -0.00787967 0.0284365 0.005 
v -0.00787997 0.0284366 0.005 
v -0.00788197 0.0284354 0 
v -0.00788197 0.0284354 0.005 
v -0.0256788 0.014536 0 
v -0.0256788 0.014536 0.005 
v -0.02235 0.0192658 0.005 
v -0.02235 0.0192658 0 
v -0.0181626 0.0232555 0.005 
v -0.0181626 0.0232555 0 
v -0.0132773 0.0263517 0.005 
v -0.0132773 0.0263517 0 
v -0.0256795 0.0145357 0.005 
v -0.0256795 0.0145357 0 
v -0.0256796 0.0145355 0 
v -0.0256794 0.0145358 0.005 
v -0.0256794 0.0145358 0 
v -0.0256793 0.0145359 0.005 
v -0.0256793 0.0145359 0 
v -0.0256792 0.0145359 8.67362e-19 
v -0.025679 0.014536 0.005 
v -0.025679 0.014536 0 
v -0.0256792 0.0145359 0.005 
v -0.0256796 0.0145355 0.005 
v -0.02568 0.0145338 0 
v -0.02568 0.0145338 0.005 
v -0.0284363 -0.00787922 0 
v -0.0284363 -0.00787922 0.005 
v -0.0294269 -0.00218081 0.005 
v -0.0294269 -0.00218081 0 
v -0.029287 0.00360138 0.005 
v -0.029287 0.00360138 0 
v -0.0280218 0.0092452 0.005 
v -0.0280218 0.0092452 0 
v -0.0284365 -0.00787999 0.005 
v -0.0284365 -0.00787999 0 
v -0.0284365 -0.00788014 0 
v -0.0284366 -0.00787984 0.005 
v -0.0284366 -0.00787984 0 
v -0.0284365 -0.00787969 0.005 
v -0.0284365 -0.00787969 -8.67362e-19 
v -0.0284365 -0.00787954 8.67362e-19 
v -0.0284364 -0.0078794 0.005 
v -0.0284364 -0.0078794 0 
v -0.0284365 -0.00787954 0.005 
v -0.0284365 -0.00788014 0.005 
v -0.0232556 -0.0181628 0.005 
v -0.0145359 -0.0256793 0.005 
v -0.0145358 -0.0256794 0.005 
v -0.0145357 -0.0256795 0.005 
v -0.0192659 -0.0223504 0.005 
v -0.0284355 -0.0078818 0.005 
v -0.0263518 -0.0132774 0.005 
v -0.0232556 -0.0181628 0 
v -0.0145357 -0.0256795 8.67362e-19 
v -0.0145358 -0.0256794 0 
v -0.0145359 -0.0256793 0 
v -0.0192659 -0.0223504 0 
v -0.0284355 -0.0078818 0 
v -0.0263518 -0.0132774 0 
vn -0.255309 -0.96686 0 
vn 0.963684 0.267046 0 
vn 0.998425 0.0560976 0 
vn 0.987533 -0.157415 0 
vn 0.931503 -0.363733 0 
vn 0.832898 -0.553426 0 
vn 0.696225 -0.717824 0 
vn 0.52773 -0.849412 0 
vn 0.335114 -0.942178 0 
vn 0.127181 -0.99188 0 
vn -0.086565 -0.996246 0 
vn -0.296354 -0.955078 0 
vn -0.492598 -0.870257 0 
vn 0.959811 0.280648 0 
vn 0.941113 0.338093 0 
vn 0.995333 0.0964974 0 
vn 0.993394 -0.114753 0 
vn 0.941113 0.338093 0 
vn 0.864203 0.503143 0 
vn 0.492602 0.870254 0 
vn 0.652911 0.757435 0 
vn 0.788129 0.61551 0 
vn 0.893063 0.449932 0 
vn 0.963679 0.267065 0 
vn 0.541172 0.840912 0 
vn 0.426384 0.904542 0 
vn 0.692873 0.721059 0 
vn 0.828021 0.560696 0 
vn 0.92132 0.388804 0 
vn 0.426384 0.904542 0 
vn 0.255308 0.96686 0 
vn -0.267029 0.963688 0 
vn -0.0739045 0.997265 0 
vn 0.12206 0.992523 0 
vn 0.313335 0.949643 0 
vn 0.49257 0.870273 0 
vn -0.154717 0.987959 0 
vn -0.338138 0.941096 0 
vn 0.0433744 0.999059 0 
vn 0.2576 0.966252 0 
vn 0.451777 0.892131 0 
vn 0.613637 0.789588 0 
vn 0.75104 0.660257 0 
vn 0.2576 0.966252 0 
vn -0.154717 0.987959 0 
vn -0.503143 0.864203 0 
vn -0.870244 0.492621 0 
vn -0.757434 0.652911 0 
vn -0.615525 0.788117 0 
vn -0.449968 0.893045 0 
vn -0.267123 0.963662 0 
vn -0.837832 0.545928 0 
vn -0.904582 0.426299 0 
vn -0.716784 0.697295 0 
vn -0.554533 0.832162 0 
vn -0.370759 0.928729 0 
vn -0.18548 0.982648 0 
vn 0.00406305 0.999992 0 
vn -0.370759 0.928729 0 
vn -0.904582 0.426299 0 
vn -0.96686 0.255309 0 
vn -0.963693 -0.267014 0 
vn -0.997266 -0.0738993 0 
vn -0.992523 0.122055 0 
vn -0.949648 0.313319 0 
vn -0.870286 0.492546 0 
vn -0.982746 -0.184959 0 
vn -0.941085 -0.338169 0 
vn -0.99995 0.00997507 0 
vn -0.975081 0.221847 0 
vn -0.908207 0.418522 0 
vn -0.811222 0.584738 0 
vn -0.686205 0.727408 0 
vn -0.908207 0.418522 0 
vn -0.941085 -0.338169 0 
vn 0 0 1 
vn 0 0 -1 
vn -0.864203 -0.503142 0 
vn -0.49262 -0.870245 0 
vn -0.652915 -0.757432 0 
vn -0.788124 -0.615517 0 
vn -0.893052 -0.449953 0 
vn -0.963668 -0.267101 0 
vn -0.547016 -0.837122 0 
vn -0.426384 -0.904542 0 
vn -0.698326 -0.71578 0 
vn -0.8353 -0.549795 0 
vn -0.547016 -0.837122 0 
usemtl 0.647059_0.647059_0.647059_0.000000_0.000000
o mesh0
f 1//1 2//1 3//1 
f 3//1 4//1 1//1 
o mesh1
f 5//2 6//2 7//3 
f 8//3 7//3 9//4 
f 10//4 9//4 11//5 
f 12//5 11//5 13//6 
f 14//6 13//6 15//7 
f 16//7 15//7 17//8 
f 18//8 17//8 19//9 
f 20//9 19//9 21//10 
f 22//10 21//10 23//11 
f 24//11 23//11 25//12 
f 26//12 25//12 4//13 
f 4//13 3//13 26//12 
f 25//12 26//12 24//11 
f 23//11 24//11 22//10 
f 21//10 22//10 20//9 
f 19//9 20//9 18//8 
f 17//8 18//8 16//7 
f 15//7 16//7 14//6 
f 13//6 14//6 12//5 
f 11//5 12//5 10//4 
f 9//4 10//4 8//3 
f 7//3 8//3 5//2 
o mesh2
f 27//14 28//14 29//15 
f 30//16 31//16 28//14 
f 6//17 5//17 31//16 
f 31//16 30//16 6//17 
f 28//14 27//14 30//16 
f 29//15 32//18 27//14 
o mesh3
f 32//19 29//19 33//19 
f 33//19 34//19 32//19 
o mesh4
f 35//20 36//20 37//21 
f 38//21 37//21 39//22 
f 40//22 39//22 41//23 
f 42//23 41//23 34//24 
f 34//24 33//24 42//23 
f 41//23 42//23 40//22 
f 39//22 40//22 38//21 
f 37//21 38//21 35//20 
o mesh5
f 43//25 44//25 45//26 
f 46//27 47//27 44//25 
f 48//28 47//27 46//27 
f 36//29 35//29 48//28 
f 48//28 49//28 36//29 
f 46//27 49//28 48//28 
f 44//25 43//25 46//27 
f 45//26 50//30 43//25 
o mesh6
f 50//31 45//31 51//31 
f 51//31 52//31 50//31 
o mesh7
f 53//32 54//32 55//33 
f 56//33 55//33 57//34 
f 58//34 57//34 59//35 
f 60//35 59//35 52//36 
f 52//36 51//36 60//35 
f 59//35 60//35 58//34 
f 57//34 58//34 56//33 
f 55//33 56//33 53//32 
o mesh8
f 61//37 62//38 63//38 
f 64//39 65//39 61//37 
f 66//40 65//39 64//39 
f 67//41 68//41 66//40 
f 69//42 70//42 68//41 
f 54//43 53//43 70//42 
f 70//42 69//42 54//43 
f 68//41 67//41 69//42 
f 66//40 71//44 67//41 
f 64//39 71//44 66//40 
f 61//37 72//45 64//39 
f 63//38 72//45 61//37 
o mesh9
f 63//46 62//46 73//46 
f 73//46 74//46 63//46 
o mesh10
f 75//47 76//47 77//48 
f 78//48 77//48 79//49 
f 80//49 79//49 81//50 
f 82//50 81//50 74//51 
f 74//51 73//51 82//50 
f 81//50 82//50 80//49 
f 79//49 80//49 78//48 
f 77//48 78//48 75//47 
o mesh11
f 83//52 84//52 85//53 
f 86//54 87//54 84//52 
f 88//55 89//55 87//54 
f 90//56 89//55 88//55 
f 91//57 92//57 90//56 
f 76//58 75//58 92//57 
f 92//57 91//57 76//58 
f 90//56 93//59 91//57 
f 88//55 93//59 90//56 
f 87//54 86//54 88//55 
f 84//52 83//52 86//54 
f 85//53 94//60 83//52 
o mesh12
f 94//61 85//61 95//61 
f 95//61 96//61 94//61 
o mesh13
f 97//62 98//62 99//63 
f 100//63 99//63 101//64 
f 102//64 101//64 103//65 
f 104//65 103//65 96//66 
f 96//66 95//66 104//65 
f 103//65 104//65 102//64 
f 101//64 102//64 100//63 
f 99//63 100//63 97//62 
o mesh14
f 105//67 106//67 107//68 
f 108//69 109//69 106//67 
f 110//70 111//70 109//69 
f 112//71 111//70 110//70 
f 113//72 114//72 112//71 
f 98//73 97//73 114//72 
f 114//72 113//72 98//73 
f 112//71 115//74 113//72 
f 110//70 115//74 112//71 
f 109//69 108//69 110//70 
f 106//67 105//67 108//69 
f 107//68 116//75 105//67 
o mesh15
f 4//76 13//76 11//76 
f 4//76 17//76 15//76 
f 15//76 13//76 4//76 
f 17//76 23//76 21//76 
f 17//76 4//76 25//76 
f 11//76 9//76 4//76 
f 25//76 23//76 17//76 
f 117//76 101//76 99//76 
f 93//76 88//76 86//76 
f 67//76 71//76 64//76 
f 21//76 19//76 17//76 
f 115//76 110//76 108//76 
f 117//76 103//76 101//76 
f 83//76 91//76 93//76 
f 117//76 79//76 77//76 
f 117//76 74//76 81//76 
f 69//76 72//76 63//76 
f 72//76 69//76 67//76 
f 117//76 59//76 57//76 
f 118//76 34//76 41//76 
f 6//76 27//76 32//76 
f 9//76 7//76 4//76 
f 4//76 118//76 119//76 
f 105//76 113//76 115//76 
f 117//76 96//76 103//76 
f 76//76 83//76 94//76 
f 83//76 76//76 91//76 
f 81//76 79//76 117//76 
f 64//76 72//76 67//76 
f 57//76 55//76 117//76 
f 52//76 36//76 49//76 
f 118//76 6//76 34//76 
f 6//76 30//76 27//76 
f 6//76 118//76 4//76 
f 119//76 120//76 4//76 
f 98//76 105//76 116//76 
f 105//76 98//76 113//76 
f 117//76 76//76 96//76 
f 86//76 83//76 93//76 
f 117//76 54//76 74//76 
f 74//76 54//76 69//76 
f 117//76 52//76 59//76 
f 49//76 46//76 52//76 
f 32//76 34//76 6//76 
f 120//76 1//76 4//76 
f 37//76 121//76 118//76 
f 37//76 36//76 117//76 
f 117//76 98//76 122//76 
f 108//76 105//76 115//76 
f 94//76 96//76 76//76 
f 63//76 74//76 69//76 
f 117//76 36//76 52//76 
f 46//76 43//76 52//76 
f 7//76 6//76 4//76 
f 117//76 121//76 37//76 
f 116//76 122//76 98//76 
f 77//76 76//76 117//76 
f 43//76 50//76 52//76 
f 118//76 39//76 37//76 
f 99//76 98//76 117//76 
f 41//76 39//76 118//76 
f 55//76 54//76 117//76 
f 122//76 123//76 117//76 
o mesh16
f 5//77 24//77 26//77 
f 18//77 10//77 12//77 
f 124//77 65//77 66//77 
f 124//77 87//77 89//77 
f 5//77 22//77 24//77 
f 5//77 18//77 20//77 
f 12//77 14//77 18//77 
f 18//77 5//77 8//77 
f 124//77 61//77 65//77 
f 124//77 84//77 87//77 
f 5//77 125//77 126//77 
f 5//77 3//77 2//77 
f 20//77 22//77 5//77 
f 8//77 10//77 18//77 
f 127//77 28//77 31//77 
f 127//77 33//77 29//77 
f 66//77 68//77 124//77 
f 124//77 73//77 62//77 
f 124//77 80//77 82//77 
f 89//77 90//77 124//77 
f 124//77 102//77 104//77 
f 112//77 106//77 109//77 
f 2//77 125//77 5//77 
f 14//77 16//77 18//77 
f 29//77 28//77 127//77 
f 127//77 40//77 42//77 
f 124//77 47//77 48//77 
f 124//77 58//77 60//77 
f 62//77 61//77 124//77 
f 124//77 78//77 80//77 
f 90//77 92//77 124//77 
f 124//77 95//77 85//77 
f 124//77 100//77 102//77 
f 109//77 111//77 112//77 
f 38//77 128//77 124//77 
f 38//77 40//77 127//77 
f 26//77 3//77 5//77 
f 42//77 33//77 127//77 
f 124//77 44//77 47//77 
f 124//77 51//77 45//77 
f 124//77 56//77 58//77 
f 68//77 70//77 124//77 
f 124//77 75//77 78//77 
f 85//77 84//77 124//77 
f 124//77 97//77 100//77 
f 112//77 114//77 106//77 
f 97//77 129//77 107//77 
f 127//77 128//77 38//77 
f 31//77 5//77 127//77 
f 45//77 44//77 124//77 
f 124//77 53//77 56//77 
f 82//77 73//77 124//77 
f 104//77 95//77 124//77 
f 107//77 106//77 97//77 
f 124//77 130//77 129//77 
f 126//77 127//77 5//77 
f 60//77 51//77 124//77 
f 92//77 75//77 124//77 
f 129//77 97//77 124//77 
f 48//77 35//77 124//77 
f 114//77 97//77 106//77 
f 70//77 53//77 124//77 
f 124//77 35//77 38//77 
o mesh17
f 107//78 129//78 122//78 
f 122//78 116//78 107//78 
o mesh18
f 127//79 118//79 121//80 
f 128//80 121//80 117//81 
f 124//81 117//81 123//82 
f 130//82 123//82 122//83 
f 122//83 129//83 130//82 
f 123//82 130//82 124//81 
f 117//81 124//81 128//80 
f 121//80 128//80 127//79 
o mesh19
f 125//84 2//85 1//85 
f 119//86 126//86 125//84 
f 118//87 127//87 126//86 
f 126//86 119//86 118//87 
f 125//84 120//88 119//86 
f 1//85 120//88 125//84 
