# OBJ generated by ONSHAPE BY PTC INC, 1.191 Units = meters
mtllib Player - Hitbox Mid.mtl
g Hitbox Mid
v 0.0207475 0.00456687 0 
v 0.0192807 0.0089202 0 
v 0.0169123 0.0128564 0 
v 0.0137532 0.0161915 0 
v 0.00995095 0.0187695 0 
v 0.00568342 0.0204698 0 
v 0.00115014 0.021213 0 
v -0.00343693 0.0209643 0 
v -0.00786328 0.0197354 0 
v -0.011922 0.0175836 0 
v -0.0154232 0.0146096 0 
v -0.0182032 0.0109525 0 
v -0.0201321 0.0067833 0 
v -0.0211196 0.0022969 0 
v -0.0211196 -0.0022969 0 
v -0.0201321 -0.0067833 0 
v -0.0182032 -0.0109525 0 
v -0.0154232 -0.0146096 0 
v -0.011922 -0.0175836 0 
v -0.00786328 -0.0197354 0 
v -0.00343693 -0.0209643 0 
v 0.00115014 -0.021213 0 
v 0.00568342 -0.0204698 0 
v 0.00995095 -0.0187695 0 
v 0.0137532 -0.0161915 0 
v 0.0169123 -0.0128564 0 
v 0.0192807 -0.0089202 0 
v 0.0207475 -0.00456687 0 
v 0.0212442 0 0 
v 0 0 0 
v 0.0212442 0 -0.005 
v 0.0207475 0.00456687 -0.005 
v 0.0192807 0.0089202 -0.005 
v 0.0169123 0.0128564 -0.005 
v 0.0137532 0.0161915 -0.005 
v 0.00995095 0.0187695 -0.005 
v 0.00568342 0.0204698 -0.005 
v 0.00115014 0.021213 -0.005 
v -0.00343693 0.0209643 -0.005 
v -0.00786328 0.0197354 -0.005 
v -0.011922 0.0175836 -0.005 
v -0.0154232 0.0146096 -0.005 
v -0.0182032 0.0109525 -0.005 
v -0.0201321 0.0067833 -0.005 
v -0.0211196 0.0022969 -0.005 
v -0.0211196 -0.0022969 -0.005 
v -0.0201321 -0.0067833 -0.005 
v -0.0182032 -0.0109525 -0.005 
v -0.0154232 -0.0146096 -0.005 
v -0.011922 -0.0175836 -0.005 
v -0.00786328 -0.0197354 -0.005 
v -0.00343693 -0.0209643 -0.005 
v 0.00115014 -0.021213 -0.005 
v 0.00568342 -0.0204698 -0.005 
v 0.00995095 -0.0187695 -0.005 
v 0.0137532 -0.0161915 -0.005 
v 0.0169123 -0.0128564 -0.005 
v 0.0192807 -0.0089202 -0.005 
v 0.0207475 -0.00456687 -0.005 
v 0.00883114 -2.163e-18 -0.0196076 
v 0.00862467 0.00189843 -0.0196076 
v 0.00801492 0.0037081 -0.0196076 
v 0.00703041 0.00534438 -0.0196076 
v 0.00571716 0.00673076 -0.0196076 
v 0.00413658 0.00780242 -0.0196076 
v 0.00236258 0.00850924 -0.0196076 
v 0.000478108 0.00881818 -0.0196076 
v -0.00142872 0.0087148 -0.0196076 
v -0.00326874 0.00820392 -0.0196076 
v -0.00495592 0.00730943 -0.0196076 
v -0.00641137 0.00607317 -0.0196076 
v -0.00756702 0.00455293 -0.0196076 
v -0.00836885 0.0028198 -0.0196076 
v -0.00877937 0.000954814 -0.0196076 
v -0.00877937 -0.000954814 -0.0196076 
v -0.00836885 -0.0028198 -0.0196076 
v -0.00756702 -0.00455293 -0.0196076 
v -0.00641137 -0.00607317 -0.0196076 
v -0.00495592 -0.00730943 -0.0196076 
v -0.00326874 -0.00820392 -0.0196076 
v -0.00142872 -0.0087148 -0.0196076 
v 0.000478108 -0.00881818 -0.0196076 
v 0.00236258 -0.00850924 -0.0196076 
v 0.00413658 -0.00780242 -0.0196076 
v 0.00571716 -0.00673076 -0.0196076 
v 0.00703041 -0.00534438 -0.0196076 
v 0.00801492 -0.0037081 -0.0196076 
v 0.00862467 -0.00189843 -0.0196076 
v 0 0 -0.0196076 
vn 0 0 1 
vn 1 0 0 
vn 0.976621 0.21497 0 
vn 0.907575 0.419889 0 
vn 0.796093 0.605174 0 
vn 0.647386 0.762162 0 
vn 0.468408 0.883512 0 
vn 0.267528 0.96355 0 
vn 0.0541389 0.998533 0 
vn -0.161782 0.986827 0 
vn -0.370138 0.928977 0 
vn -0.561187 0.827689 0 
vn -0.725995 0.687699 0 
vn -0.856857 0.515554 0 
vn -0.947653 0.319302 0 
vn -0.994138 0.108119 0 
vn -0.994138 -0.108119 0 
vn -0.947653 -0.319302 0 
vn -0.856857 -0.515554 0 
vn -0.725995 -0.687699 0 
vn -0.561187 -0.827689 0 
vn -0.370138 -0.928977 0 
vn -0.161782 -0.986827 0 
vn 0.0541389 -0.998533 0 
vn 0.267528 -0.96355 0 
vn 0.468408 -0.883512 0 
vn 0.647386 -0.762162 0 
vn 0.796093 -0.605174 0 
vn 0.907575 -0.419889 0 
vn 0.976621 -0.21497 0 
vn 0.762027 0 -0.647545 
vn 0.744211 0.163813 -0.647545 
vn 0.691597 0.319967 -0.647545 
vn 0.606644 0.461159 -0.647545 
vn 0.493326 0.580788 -0.647545 
vn 0.35694 0.67326 -0.647545 
vn 0.203864 0.734251 -0.647545 
vn 0.0412553 0.760909 -0.647545 
vn -0.123282 0.751988 -0.647545 
vn -0.282055 0.707905 -0.647545 
vn -0.42764 0.630721 -0.647545 
vn -0.553228 0.524045 -0.647545 
vn -0.652948 0.392866 -0.647545 
vn -0.722137 0.243316 -0.647545 
vn -0.75756 0.0823896 -0.647545 
vn -0.75756 -0.0823896 -0.647545 
vn -0.722137 -0.243316 -0.647545 
vn -0.652948 -0.392866 -0.647545 
vn -0.553228 -0.524045 -0.647545 
vn -0.42764 -0.630721 -0.647545 
vn -0.282055 -0.707905 -0.647545 
vn -0.123282 -0.751988 -0.647545 
vn 0.0412553 -0.760909 -0.647545 
vn 0.203864 -0.734251 -0.647545 
vn 0.35694 -0.67326 -0.647545 
vn 0.493326 -0.580788 -0.647545 
vn 0.606644 -0.461159 -0.647545 
vn 0.691597 -0.319967 -0.647545 
vn 0.744211 -0.163813 -0.647545 
vn 0 0 -1 
usemtl 0.231373_0.380392_0.705882_0.000000_0.000000
o mesh0
f 30//1 1//1 2//1 
f 2//1 3//1 30//1 
f 3//1 4//1 30//1 
f 4//1 5//1 30//1 
f 5//1 6//1 30//1 
f 6//1 7//1 30//1 
f 7//1 8//1 30//1 
f 8//1 9//1 30//1 
f 9//1 10//1 30//1 
f 10//1 11//1 30//1 
f 11//1 12//1 30//1 
f 12//1 13//1 30//1 
f 13//1 14//1 30//1 
f 14//1 15//1 30//1 
f 15//1 16//1 30//1 
f 16//1 17//1 30//1 
f 17//1 18//1 30//1 
f 18//1 19//1 30//1 
f 19//1 20//1 30//1 
f 20//1 21//1 30//1 
f 21//1 22//1 30//1 
f 22//1 23//1 30//1 
f 23//1 24//1 30//1 
f 24//1 25//1 30//1 
f 25//1 26//1 30//1 
f 26//1 27//1 30//1 
f 27//1 28//1 30//1 
f 28//1 29//1 30//1 
f 29//1 1//1 30//1 
o mesh1
f 29//2 31//2 32//3 
f 1//3 32//3 33//4 
f 2//4 33//4 34//5 
f 3//5 34//5 35//6 
f 4//6 35//6 36//7 
f 5//7 36//7 37//8 
f 6//8 37//8 38//9 
f 7//9 38//9 39//10 
f 8//10 39//10 40//11 
f 9//11 40//11 41//12 
f 10//12 41//12 42//13 
f 11//13 42//13 43//14 
f 12//14 43//14 44//15 
f 13//15 44//15 45//16 
f 14//16 45//16 46//17 
f 15//17 46//17 47//18 
f 16//18 47//18 48//19 
f 17//19 48//19 49//20 
f 18//20 49//20 50//21 
f 19//21 50//21 51//22 
f 20//22 51//22 52//23 
f 21//23 52//23 53//24 
f 22//24 53//24 54//25 
f 23//25 54//25 55//26 
f 24//26 55//26 56//27 
f 25//27 56//27 57//28 
f 26//28 57//28 58//29 
f 27//29 58//29 59//30 
f 28//30 59//30 31//2 
f 31//2 29//2 28//30 
f 59//30 28//30 27//29 
f 58//29 27//29 26//28 
f 57//28 26//28 25//27 
f 56//27 25//27 24//26 
f 55//26 24//26 23//25 
f 54//25 23//25 22//24 
f 53//24 22//24 21//23 
f 52//23 21//23 20//22 
f 51//22 20//22 19//21 
f 50//21 19//21 18//20 
f 49//20 18//20 17//19 
f 48//19 17//19 16//18 
f 47//18 16//18 15//17 
f 46//17 15//17 14//16 
f 45//16 14//16 13//15 
f 44//15 13//15 12//14 
f 43//14 12//14 11//13 
f 42//13 11//13 10//12 
f 41//12 10//12 9//11 
f 40//11 9//11 8//10 
f 39//10 8//10 7//9 
f 38//9 7//9 6//8 
f 37//8 6//8 5//7 
f 36//7 5//7 4//6 
f 35//6 4//6 3//5 
f 34//5 3//5 2//4 
f 33//4 2//4 1//3 
f 32//3 1//3 29//2 
o mesh2
f 31//31 60//31 61//32 
f 32//32 61//32 62//33 
f 33//33 62//33 63//34 
f 34//34 63//34 64//35 
f 35//35 64//35 65//36 
f 36//36 65//36 66//37 
f 37//37 66//37 67//38 
f 38//38 67//38 68//39 
f 39//39 68//39 69//40 
f 40//40 69//40 70//41 
f 41//41 70//41 71//42 
f 42//42 71//42 72//43 
f 43//43 72//43 73//44 
f 44//44 73//44 74//45 
f 45//45 74//45 75//46 
f 46//46 75//46 76//47 
f 47//47 76//47 77//48 
f 48//48 77//48 78//49 
f 49//49 78//49 79//50 
f 50//50 79//50 80//51 
f 51//51 80//51 81//52 
f 52//52 81//52 82//53 
f 53//53 82//53 83//54 
f 54//54 83//54 84//55 
f 55//55 84//55 85//56 
f 56//56 85//56 86//57 
f 57//57 86//57 87//58 
f 58//58 87//58 88//59 
f 59//59 88//59 60//31 
f 60//31 31//31 59//59 
f 88//59 59//59 58//58 
f 87//58 58//58 57//57 
f 86//57 57//57 56//56 
f 85//56 56//56 55//55 
f 84//55 55//55 54//54 
f 83//54 54//54 53//53 
f 82//53 53//53 52//52 
f 81//52 52//52 51//51 
f 80//51 51//51 50//50 
f 79//50 50//50 49//49 
f 78//49 49//49 48//48 
f 77//48 48//48 47//47 
f 76//47 47//47 46//46 
f 75//46 46//46 45//45 
f 74//45 45//45 44//44 
f 73//44 44//44 43//43 
f 72//43 43//43 42//42 
f 71//42 42//42 41//41 
f 70//41 41//41 40//40 
f 69//40 40//40 39//39 
f 68//39 39//39 38//38 
f 67//38 38//38 37//37 
f 66//37 37//37 36//36 
f 65//36 36//36 35//35 
f 64//35 35//35 34//34 
f 63//34 34//34 33//33 
f 62//33 33//33 32//32 
f 61//32 32//32 31//31 
o mesh3
f 89//60 88//60 87//60 
f 87//60 86//60 89//60 
f 86//60 85//60 89//60 
f 85//60 84//60 89//60 
f 84//60 83//60 89//60 
f 83//60 82//60 89//60 
f 82//60 81//60 89//60 
f 81//60 80//60 89//60 
f 80//60 79//60 89//60 
f 79//60 78//60 89//60 
f 78//60 77//60 89//60 
f 77//60 76//60 89//60 
f 76//60 75//60 89//60 
f 75//60 74//60 89//60 
f 74//60 73//60 89//60 
f 73//60 72//60 89//60 
f 72//60 71//60 89//60 
f 71//60 70//60 89//60 
f 70//60 69//60 89//60 
f 69//60 68//60 89//60 
f 68//60 67//60 89//60 
f 67//60 66//60 89//60 
f 66//60 65//60 89//60 
f 65//60 64//60 89//60 
f 64//60 63//60 89//60 
f 63//60 62//60 89//60 
f 62//60 61//60 89//60 
f 61//60 60//60 89//60 
f 60//60 88//60 89//60 
